<?xml version="1.0" encoding="UTF-8" standalone="no"?>
<svg
   xmlns:dc="http://purl.org/dc/elements/1.1/"
   xmlns:cc="http://creativecommons.org/ns#"
   xmlns:rdf="http://www.w3.org/1999/02/22-rdf-syntax-ns#"
   xmlns:svg="http://www.w3.org/2000/svg"
   xmlns="http://www.w3.org/2000/svg"
   xmlns:sodipodi="http://sodipodi.sourceforge.net/DTD/sodipodi-0.dtd"
   xmlns:inkscape="http://www.inkscape.org/namespaces/inkscape"
   inkscape:export-ydpi="200"
   inkscape:export-xdpi="200"
   inkscape:export-filename="C:\Users\kmwtb\Desktop\Others\priyam\assets\images\autumn.png"
   width="190"
   height="190"
   viewBox="0 0 50.270834 50.270834"
   version="1.1"
   id="svg8"
   inkscape:version="1.0 (4035a4fb49, 2020-05-01)"
   sodipodi:docname="autumn.svg">
  <defs
     id="defs2" />
  <sodipodi:namedview
     id="base"
     pagecolor="#ffffff"
     bordercolor="#666666"
     borderopacity="1.0"
     inkscape:pageopacity="1"
     inkscape:pageshadow="2"
     inkscape:zoom="2.8"
     inkscape:cx="174.2923"
     inkscape:cy="74.040223"
     inkscape:document-units="mm"
     inkscape:current-layer="layer1"
     inkscape:document-rotation="0"
     showgrid="false"
     units="px"
     borderlayer="true"
     inkscape:window-width="1920"
     inkscape:window-height="1000"
     inkscape:window-x="-11"
     inkscape:window-y="-11"
     inkscape:window-maximized="1"
     inkscape:snap-bbox="true" />
  <metadata
     id="metadata5">
    <rdf:RDF>
      <cc:Work
         rdf:about="">
        <dc:format>image/svg+xml</dc:format>
        <dc:type
           rdf:resource="http://purl.org/dc/dcmitype/StillImage" />
        <dc:title />
      </cc:Work>
    </rdf:RDF>
  </metadata>
  <g
     inkscape:label="Layer 1"
     inkscape:groupmode="layer"
     id="layer1">
    <path
       transform="matrix(1.298634,0.08152054,-0.08152054,1.298634,-5.0725629,-3.3450645)"
       inkscape:transform-center-y="3.0182825"
       inkscape:transform-center-x="-0.039184059"
       d="M 6.8821903,14.03165 C 6.0257802,14.077943 -2.8718347,0.42593532 -2.4837201,-0.33888385 -2.0956055,-1.103703 14.176187,-1.9832598 14.644483,-1.2647331 15.112778,-0.5462064 7.7386005,13.985358 6.8821903,14.03165 Z"
       inkscape:randomized="0"
       inkscape:rounded="0.05"
       inkscape:flatsided="true"
       sodipodi:arg2="2.5639924"
       sodipodi:arg1="1.5167948"
       sodipodi:r2="4.9517045"
       sodipodi:r1="9.903409"
       sodipodi:cy="4.1426778"
       sodipodi:cx="6.347651"
       sodipodi:sides="3"
       id="path4261"
       style="opacity:1;fill:#70725d;fill-opacity:1;stroke:none;stroke-width:0.599001;stroke-opacity:1"
       sodipodi:type="star" />
    <path
       sodipodi:type="star"
       style="opacity:1;fill:#555438;fill-opacity:1;stroke:none;stroke-width:0.599001;stroke-opacity:1"
       id="path4261-1"
       sodipodi:sides="3"
       sodipodi:cx="6.347651"
       sodipodi:cy="4.1426778"
       sodipodi:r1="9.903409"
       sodipodi:r2="4.9517045"
       sodipodi:arg1="1.5167948"
       sodipodi:arg2="2.5639924"
       inkscape:flatsided="true"
       inkscape:rounded="0.05"
       inkscape:randomized="0"
       d="M 6.8821903,14.03165 C 6.0257802,14.077943 -2.8718347,0.42593532 -2.4837201,-0.33888385 -2.0956055,-1.103703 14.176187,-1.9832598 14.644483,-1.2647331 15.112778,-0.5462064 7.7386005,13.985358 6.8821903,14.03165 Z"
       inkscape:transform-center-x="-0.03918444"
       inkscape:transform-center-y="3.0182825"
       transform="matrix(1.298634,0.08152054,-0.08152054,1.298634,8.6983671,-3.3450644)" />
    <path
       transform="matrix(1.298634,0.08152054,-0.08152054,1.298634,22.469296,-3.3450644)"
       inkscape:transform-center-y="3.0182825"
       inkscape:transform-center-x="-0.039184288"
       d="M 6.8821903,14.03165 C 6.0257802,14.077943 -2.8718347,0.42593532 -2.4837201,-0.33888385 -2.0956055,-1.103703 14.176187,-1.9832598 14.644483,-1.2647331 15.112778,-0.5462064 7.7386005,13.985358 6.8821903,14.03165 Z"
       inkscape:randomized="0"
       inkscape:rounded="0.05"
       inkscape:flatsided="true"
       sodipodi:arg2="2.5639924"
       sodipodi:arg1="1.5167948"
       sodipodi:r2="4.9517045"
       sodipodi:r1="9.903409"
       sodipodi:cy="4.1426778"
       sodipodi:cx="6.347651"
       sodipodi:sides="3"
       id="path4261-1-4"
       style="opacity:1;fill:#895315;fill-opacity:1;stroke:none;stroke-width:0.599001;stroke-opacity:1"
       sodipodi:type="star" />
    <path
       sodipodi:type="star"
       style="opacity:1;fill:#851916;fill-opacity:1;stroke:none;stroke-width:0.599001;stroke-opacity:1"
       id="path4261-1-4-2"
       sodipodi:sides="3"
       sodipodi:cx="6.347651"
       sodipodi:cy="4.1426778"
       sodipodi:r1="9.903409"
       sodipodi:r2="4.9517045"
       sodipodi:arg1="1.5167948"
       sodipodi:arg2="2.5639924"
       inkscape:flatsided="true"
       inkscape:rounded="0.05"
       inkscape:randomized="0"
       d="M 6.8821903,14.03165 C 6.0257802,14.077943 -2.8718347,0.42593532 -2.4837201,-0.33888385 -2.0956055,-1.103703 14.176187,-1.9832598 14.644483,-1.2647331 15.112778,-0.5462064 7.7386005,13.985358 6.8821903,14.03165 Z"
       inkscape:transform-center-x="-0.039184135"
       inkscape:transform-center-y="3.0182825"
       transform="matrix(1.298634,0.08152054,-0.08152054,1.298634,36.240225,-3.3450643)" />
    <path
       transform="matrix(1.298634,0.08152054,-0.08152054,1.298634,-5.0725629,17.311328)"
       inkscape:transform-center-y="3.0182822"
       inkscape:transform-center-x="-0.039184073"
       d="M 6.8821903,14.03165 C 6.0257802,14.077943 -2.8718347,0.42593532 -2.4837201,-0.33888385 -2.0956055,-1.103703 14.176187,-1.9832598 14.644483,-1.2647331 15.112778,-0.5462064 7.7386005,13.985358 6.8821903,14.03165 Z"
       inkscape:randomized="0"
       inkscape:rounded="0.05"
       inkscape:flatsided="true"
       sodipodi:arg2="2.5639924"
       sodipodi:arg1="1.5167948"
       sodipodi:r2="4.9517045"
       sodipodi:r1="9.903409"
       sodipodi:cy="4.1426778"
       sodipodi:cx="6.347651"
       sodipodi:sides="3"
       id="path4261-1-4-2-4"
       style="opacity:1;fill:#555438;fill-opacity:1;stroke:none;stroke-width:0.599001;stroke-opacity:1"
       sodipodi:type="star" />
    <path
       transform="matrix(1.298634,0.08152054,-0.08152054,1.298634,8.6983671,17.311329)"
       inkscape:transform-center-y="3.0182827"
       inkscape:transform-center-x="-0.039184447"
       d="M 6.8821903,14.03165 C 6.0257802,14.077943 -2.8718347,0.42593532 -2.4837201,-0.33888385 -2.0956055,-1.103703 14.176187,-1.9832598 14.644483,-1.2647331 15.112778,-0.5462064 7.7386005,13.985358 6.8821903,14.03165 Z"
       inkscape:randomized="0"
       inkscape:rounded="0.05"
       inkscape:flatsided="true"
       sodipodi:arg2="2.5639924"
       sodipodi:arg1="1.5167948"
       sodipodi:r2="4.9517045"
       sodipodi:r1="9.903409"
       sodipodi:cy="4.1426778"
       sodipodi:cx="6.347651"
       sodipodi:sides="3"
       id="path4261-1-4-2-6"
       style="opacity:1;fill:#851916;fill-opacity:1;stroke:none;stroke-width:0.599001;stroke-opacity:1"
       sodipodi:type="star" />
    <path
       transform="matrix(1.298634,0.08152054,-0.08152054,1.298634,22.469296,17.311329)"
       inkscape:transform-center-y="3.0182821"
       inkscape:transform-center-x="-0.03918431"
       d="M 6.8821903,14.03165 C 6.0257802,14.077943 -2.8718347,0.42593532 -2.4837201,-0.33888385 -2.0956055,-1.103703 14.176187,-1.9832598 14.644483,-1.2647331 15.112778,-0.5462064 7.7386005,13.985358 6.8821903,14.03165 Z"
       inkscape:randomized="0"
       inkscape:rounded="0.05"
       inkscape:flatsided="true"
       sodipodi:arg2="2.5639924"
       sodipodi:arg1="1.5167948"
       sodipodi:r2="4.9517045"
       sodipodi:r1="9.903409"
       sodipodi:cy="4.1426778"
       sodipodi:cx="6.347651"
       sodipodi:sides="3"
       id="path4261-1-4-2-2"
       style="opacity:1;fill:#927e63;fill-opacity:1;stroke:none;stroke-width:0.599001;stroke-opacity:1"
       sodipodi:type="star" />
    <path
       transform="matrix(1.298634,0.08152054,-0.08152054,1.298634,36.240225,17.31133)"
       inkscape:transform-center-y="3.0182826"
       inkscape:transform-center-x="-0.039184172"
       d="M 6.8821903,14.03165 C 6.0257802,14.077943 -2.8718347,0.42593532 -2.4837201,-0.33888385 -2.0956055,-1.103703 14.176187,-1.9832598 14.644483,-1.2647331 15.112778,-0.5462064 7.7386005,13.985358 6.8821903,14.03165 Z"
       inkscape:randomized="0"
       inkscape:rounded="0.05"
       inkscape:flatsided="true"
       sodipodi:arg2="2.5639924"
       sodipodi:arg1="1.5167948"
       sodipodi:r2="4.9517045"
       sodipodi:r1="9.903409"
       sodipodi:cy="4.1426778"
       sodipodi:cx="6.347651"
       sodipodi:sides="3"
       id="path4261-1-4-2-8"
       style="opacity:1;fill:#895315;fill-opacity:1;stroke:none;stroke-width:0.599001;stroke-opacity:1"
       sodipodi:type="star" />
    <path
       sodipodi:type="star"
       style="opacity:1;fill:#5d6c09;fill-opacity:0.9921568;stroke:none;stroke-width:0.599001;stroke-opacity:1"
       id="path4261-1-4-2-8-8"
       sodipodi:sides="3"
       sodipodi:cx="6.347651"
       sodipodi:cy="4.1426778"
       sodipodi:r1="9.903409"
       sodipodi:r2="4.9517045"
       sodipodi:arg1="1.5167948"
       sodipodi:arg2="2.5639924"
       inkscape:flatsided="true"
       inkscape:rounded="0.05"
       inkscape:randomized="0"
       d="M 6.8821903,14.03165 C 6.0257802,14.077943 -2.8718347,0.42593532 -2.4837201,-0.33888385 -2.0956055,-1.103703 14.176187,-1.9832598 14.644483,-1.2647331 15.112778,-0.5462064 7.7386005,13.985358 6.8821903,14.03165 Z"
       inkscape:transform-center-x="-0.039184046"
       inkscape:transform-center-y="3.0182825"
       transform="matrix(1.298634,0.08152054,-0.08152054,1.298634,-5.072563,37.967722)" />
    <path
       sodipodi:type="star"
       style="opacity:1;fill:#927e63;fill-opacity:1;stroke:none;stroke-width:0.599001;stroke-opacity:1"
       id="path4261-1-4-2-8-4"
       sodipodi:sides="3"
       sodipodi:cx="6.347651"
       sodipodi:cy="4.1426778"
       sodipodi:r1="9.903409"
       sodipodi:r2="4.9517045"
       sodipodi:arg1="1.5167948"
       sodipodi:arg2="2.5639924"
       inkscape:flatsided="true"
       inkscape:rounded="0.05"
       inkscape:randomized="0"
       d="M 6.8821903,14.03165 C 6.0257802,14.077943 -2.8718347,0.42593532 -2.4837201,-0.33888385 -2.0956055,-1.103703 14.176187,-1.9832598 14.644483,-1.2647331 15.112778,-0.5462064 7.7386005,13.985358 6.8821903,14.03165 Z"
       inkscape:transform-center-x="-0.039184253"
       inkscape:transform-center-y="3.018283"
       transform="matrix(1.298634,0.08152054,-0.08152054,1.298634,8.6983661,37.967723)" />
    <path
       sodipodi:type="star"
       style="opacity:1;fill:#895315;fill-opacity:1;stroke:none;stroke-width:0.599001;stroke-opacity:1"
       id="path4261-1-4-2-8-1"
       sodipodi:sides="3"
       sodipodi:cx="6.347651"
       sodipodi:cy="4.1426778"
       sodipodi:r1="9.903409"
       sodipodi:r2="4.9517045"
       sodipodi:arg1="1.5167948"
       sodipodi:arg2="2.5639924"
       inkscape:flatsided="true"
       inkscape:rounded="0.05"
       inkscape:randomized="0"
       d="M 6.8821903,14.03165 C 6.0257802,14.077943 -2.8718347,0.42593532 -2.4837201,-0.33888385 -2.0956055,-1.103703 14.176187,-1.9832598 14.644483,-1.2647331 15.112778,-0.5462064 7.7386005,13.985358 6.8821903,14.03165 Z"
       inkscape:transform-center-x="-0.039184116"
       inkscape:transform-center-y="3.0182824"
       transform="matrix(1.298634,0.08152054,-0.08152054,1.298634,22.469295,37.967723)" />
    <path
       sodipodi:type="star"
       style="opacity:1;fill:#555438;fill-opacity:1;stroke:none;stroke-width:0.599001;stroke-opacity:1"
       id="path4261-1-4-2-8-0"
       sodipodi:sides="3"
       sodipodi:cx="6.347651"
       sodipodi:cy="4.1426778"
       sodipodi:r1="9.903409"
       sodipodi:r2="4.9517045"
       sodipodi:arg1="1.5167948"
       sodipodi:arg2="2.5639924"
       inkscape:flatsided="true"
       inkscape:rounded="0.05"
       inkscape:randomized="0"
       d="M 6.8821903,14.03165 C 6.0257802,14.077943 -2.8718347,0.42593532 -2.4837201,-0.33888385 -2.0956055,-1.103703 14.176187,-1.9832598 14.644483,-1.2647331 15.112778,-0.5462064 7.7386005,13.985358 6.8821903,14.03165 Z"
       inkscape:transform-center-x="-0.039183979"
       inkscape:transform-center-y="3.0182829"
       transform="matrix(1.298634,0.08152054,-0.08152054,1.298634,36.240224,37.967724)" />
    <path
       transform="matrix(1.298634,-0.08152054,-0.08152054,-1.298634,-11.60222,37.996985)"
       inkscape:transform-center-y="-3.0182823"
       inkscape:transform-center-x="-0.039183813"
       d="M 6.8821903,14.03165 C 6.0257802,14.077943 -2.8718347,0.42593532 -2.4837201,-0.33888385 -2.0956055,-1.103703 14.176187,-1.9832598 14.644483,-1.2647331 15.112778,-0.5462064 7.7386005,13.985358 6.8821903,14.03165 Z"
       inkscape:randomized="0"
       inkscape:rounded="0.05"
       inkscape:flatsided="true"
       sodipodi:arg2="2.5639924"
       sodipodi:arg1="1.5167948"
       sodipodi:r2="4.9517045"
       sodipodi:r1="9.903409"
       sodipodi:cy="4.1426778"
       sodipodi:cx="6.347651"
       sodipodi:sides="3"
       id="path4261-1-4-2-8-8-0"
       style="opacity:1;fill:#a05a2c;fill-opacity:1;stroke:none;stroke-width:0.599001;stroke-opacity:1"
       sodipodi:type="star" />
    <path
       transform="matrix(1.298634,-0.08152054,-0.08152054,-1.298634,2.1687091,37.996987)"
       inkscape:transform-center-y="-3.0182823"
       inkscape:transform-center-x="-0.039183499"
       d="M 6.8821903,14.03165 C 6.0257802,14.077943 -2.8718347,0.42593532 -2.4837201,-0.33888385 -2.0956055,-1.103703 14.176187,-1.9832598 14.644483,-1.2647331 15.112778,-0.5462064 7.7386005,13.985358 6.8821903,14.03165 Z"
       inkscape:randomized="0"
       inkscape:rounded="0.05"
       inkscape:flatsided="true"
       sodipodi:arg2="2.5639924"
       sodipodi:arg1="1.5167948"
       sodipodi:r2="4.9517045"
       sodipodi:r1="9.903409"
       sodipodi:cy="4.1426778"
       sodipodi:cx="6.347651"
       sodipodi:sides="3"
       id="path4261-1-4-2-8-4-9"
       style="opacity:1;fill:#895315;fill-opacity:1;stroke:none;stroke-width:0.599001;stroke-opacity:1"
       sodipodi:type="star" />
    <path
       transform="matrix(1.298634,-0.08152054,-0.08152054,-1.298634,15.939639,37.996988)"
       inkscape:transform-center-y="-3.0182823"
       inkscape:transform-center-x="-0.03918418"
       d="M 6.8821903,14.03165 C 6.0257802,14.077943 -2.8718347,0.42593532 -2.4837201,-0.33888385 -2.0956055,-1.103703 14.176187,-1.9832598 14.644483,-1.2647331 15.112778,-0.5462064 7.7386005,13.985358 6.8821903,14.03165 Z"
       inkscape:randomized="0"
       inkscape:rounded="0.05"
       inkscape:flatsided="true"
       sodipodi:arg2="2.5639924"
       sodipodi:arg1="1.5167948"
       sodipodi:r2="4.9517045"
       sodipodi:r1="9.903409"
       sodipodi:cy="4.1426778"
       sodipodi:cx="6.347651"
       sodipodi:sides="3"
       id="path4261-1-4-2-8-1-6"
       style="opacity:1;fill:#47332a;fill-opacity:1;stroke:none;stroke-width:0.599001;stroke-opacity:1"
       sodipodi:type="star" />
    <path
       transform="matrix(1.298634,-0.08152054,-0.08152054,-1.298634,29.710567,37.996989)"
       inkscape:transform-center-y="-3.0182825"
       inkscape:transform-center-x="-0.039183807"
       d="M 6.8821903,14.03165 C 6.0257802,14.077943 -2.8718347,0.42593532 -2.4837201,-0.33888385 -2.0956055,-1.103703 14.176187,-1.9832598 14.644483,-1.2647331 15.112778,-0.5462064 7.7386005,13.985358 6.8821903,14.03165 Z"
       inkscape:randomized="0"
       inkscape:rounded="0.05"
       inkscape:flatsided="true"
       sodipodi:arg2="2.5639924"
       sodipodi:arg1="1.5167948"
       sodipodi:r2="4.9517045"
       sodipodi:r1="9.903409"
       sodipodi:cy="4.1426778"
       sodipodi:cx="6.347651"
       sodipodi:sides="3"
       id="path4261-1-4-2-8-0-0"
       style="opacity:1;fill:#70725d;fill-opacity:1;stroke:none;stroke-width:0.599001;stroke-opacity:1"
       sodipodi:type="star" />
    <path
       sodipodi:type="star"
       style="opacity:1;fill:#3e6347;fill-opacity:1;stroke:none;stroke-width:0.599001;stroke-opacity:1"
       id="path4261-1-4-2-8-0-0-3"
       sodipodi:sides="3"
       sodipodi:cx="6.347651"
       sodipodi:cy="4.1426778"
       sodipodi:r1="9.903409"
       sodipodi:r2="4.9517045"
       sodipodi:arg1="1.5167948"
       sodipodi:arg2="2.5639924"
       inkscape:flatsided="true"
       inkscape:rounded="0.05"
       inkscape:randomized="0"
       d="M 6.8821903,14.03165 C 6.0257802,14.077943 -2.8718347,0.42593532 -2.4837201,-0.33888385 -2.0956055,-1.103703 14.176187,-1.9832598 14.644483,-1.2647331 15.112778,-0.5462064 7.7386005,13.985358 6.8821903,14.03165 Z"
       inkscape:transform-center-x="-0.0391836"
       inkscape:transform-center-y="-3.0182825"
       transform="matrix(1.298634,-0.08152054,-0.08152054,-1.298634,43.481497,37.996989)" />
    <path
       sodipodi:type="star"
       style="opacity:1;fill:#927e63;fill-opacity:1;stroke:none;stroke-width:0.599001;stroke-opacity:1"
       id="path4261-1-4-2-8-8-0-1"
       sodipodi:sides="3"
       sodipodi:cx="6.347651"
       sodipodi:cy="4.1426778"
       sodipodi:r1="9.903409"
       sodipodi:r2="4.9517045"
       sodipodi:arg1="1.5167948"
       sodipodi:arg2="2.5639924"
       inkscape:flatsided="true"
       inkscape:rounded="0.05"
       inkscape:randomized="0"
       d="M 6.8821903,14.03165 C 6.0257802,14.077943 -2.8718347,0.42593532 -2.4837201,-0.33888385 -2.0956055,-1.103703 14.176187,-1.9832598 14.644483,-1.2647331 15.112778,-0.5462064 7.7386005,13.985358 6.8821903,14.03165 Z"
       inkscape:transform-center-x="-0.039183785"
       inkscape:transform-center-y="-3.0182823"
       transform="matrix(1.298634,-0.08152054,-0.08152054,-1.298634,-11.602222,17.340591)" />
    <path
       sodipodi:type="star"
       style="opacity:1;fill:#bc915f;fill-opacity:1;stroke:none;stroke-width:0.599001;stroke-opacity:1"
       id="path4261-1-4-2-8-4-9-2"
       sodipodi:sides="3"
       sodipodi:cx="6.347651"
       sodipodi:cy="4.1426778"
       sodipodi:r1="9.903409"
       sodipodi:r2="4.9517045"
       sodipodi:arg1="1.5167948"
       sodipodi:arg2="2.5639924"
       inkscape:flatsided="true"
       inkscape:rounded="0.05"
       inkscape:randomized="0"
       d="M 6.8821903,14.03165 C 6.0257802,14.077943 -2.8718347,0.42593532 -2.4837201,-0.33888385 -2.0956055,-1.103703 14.176187,-1.9832598 14.644483,-1.2647331 15.112778,-0.5462064 7.7386005,13.985358 6.8821903,14.03165 Z"
       inkscape:transform-center-x="-0.039183471"
       inkscape:transform-center-y="-3.018283"
       transform="matrix(1.298634,-0.08152054,-0.08152054,-1.298634,2.1687066,17.340591)" />
    <path
       sodipodi:type="star"
       style="opacity:1;fill:#725330;fill-opacity:1;stroke:none;stroke-width:0.599001;stroke-opacity:1"
       id="path4261-1-4-2-8-1-6-7"
       sodipodi:sides="3"
       sodipodi:cx="6.347651"
       sodipodi:cy="4.1426778"
       sodipodi:r1="9.903409"
       sodipodi:r2="4.9517045"
       sodipodi:arg1="1.5167948"
       sodipodi:arg2="2.5639924"
       inkscape:flatsided="true"
       inkscape:rounded="0.05"
       inkscape:randomized="0"
       d="M 6.8821903,14.03165 C 6.0257802,14.077943 -2.8718347,0.42593532 -2.4837201,-0.33888385 -2.0956055,-1.103703 14.176187,-1.9832598 14.644483,-1.2647331 15.112778,-0.5462064 7.7386005,13.985358 6.8821903,14.03165 Z"
       inkscape:transform-center-x="-0.039184782"
       inkscape:transform-center-y="-3.0182827"
       transform="matrix(1.298634,-0.08152054,-0.08152054,-1.298634,15.939637,17.340591)" />
    <path
       sodipodi:type="star"
       style="opacity:1;fill:#596610;fill-opacity:0.98841697;stroke:none;stroke-width:0.599001;stroke-opacity:1"
       id="path4261-1-4-2-8-0-0-5"
       sodipodi:sides="3"
       sodipodi:cx="6.347651"
       sodipodi:cy="4.1426778"
       sodipodi:r1="9.903409"
       sodipodi:r2="4.9517045"
       sodipodi:arg1="1.5167948"
       sodipodi:arg2="2.5639924"
       inkscape:flatsided="true"
       inkscape:rounded="0.05"
       inkscape:randomized="0"
       d="M 6.8821903,14.03165 C 6.0257802,14.077943 -2.8718347,0.42593532 -2.4837201,-0.33888385 -2.0956055,-1.103703 14.176187,-1.9832598 14.644483,-1.2647331 15.112778,-0.5462064 7.7386005,13.985358 6.8821903,14.03165 Z"
       inkscape:transform-center-x="-0.039183807"
       inkscape:transform-center-y="-3.0182822"
       transform="matrix(1.298634,-0.08152054,-0.08152054,-1.298634,29.710567,17.340594)" />
    <path
       transform="matrix(1.298634,-0.08152054,-0.08152054,-1.298634,43.481497,17.340594)"
       inkscape:transform-center-y="-3.0182822"
       inkscape:transform-center-x="-0.0391836"
       d="M 6.8821903,14.03165 C 6.0257802,14.077943 -2.8718347,0.42593532 -2.4837201,-0.33888385 -2.0956055,-1.103703 14.176187,-1.9832598 14.644483,-1.2647331 15.112778,-0.5462064 7.7386005,13.985358 6.8821903,14.03165 Z"
       inkscape:randomized="0"
       inkscape:rounded="0.05"
       inkscape:flatsided="true"
       sodipodi:arg2="2.5639924"
       sodipodi:arg1="1.5167948"
       sodipodi:r2="4.9517045"
       sodipodi:r1="9.903409"
       sodipodi:cy="4.1426778"
       sodipodi:cx="6.347651"
       sodipodi:sides="3"
       id="path4261-1-4-2-8-0-0-3-1"
       style="opacity:1;fill:#0f4f51;fill-opacity:1;stroke:none;stroke-width:0.599001;stroke-opacity:1"
       sodipodi:type="star" />
    <path
       sodipodi:type="star"
       style="opacity:1;fill:#b46d1d;fill-opacity:1;stroke:none;stroke-width:0.599001;stroke-opacity:1"
       id="path4261-1-4-2-8-8-0-8"
       sodipodi:sides="3"
       sodipodi:cx="6.347651"
       sodipodi:cy="4.1426778"
       sodipodi:r1="9.903409"
       sodipodi:r2="4.9517045"
       sodipodi:arg1="1.5167948"
       sodipodi:arg2="2.5639924"
       inkscape:flatsided="true"
       inkscape:rounded="0.05"
       inkscape:randomized="0"
       d="M 6.8821903,14.03165 C 6.0257802,14.077943 -2.8718347,0.42593532 -2.4837201,-0.33888385 -2.0956055,-1.103703 14.176187,-1.9832598 14.644483,-1.2647331 15.112778,-0.5462064 7.7386005,13.985358 6.8821903,14.03165 Z"
       inkscape:transform-center-x="-0.039183813"
       inkscape:transform-center-y="-3.0182823"
       transform="matrix(1.298634,-0.08152054,-0.08152054,-1.298634,-13.319334,60.001787)" />
    <path
       sodipodi:type="star"
       style="opacity:1;fill:#d4702b;fill-opacity:1;stroke:none;stroke-width:0.599001;stroke-opacity:1"
       id="path4261-1-4-2-8-4-9-7"
       sodipodi:sides="3"
       sodipodi:cx="6.347651"
       sodipodi:cy="4.1426778"
       sodipodi:r1="9.903409"
       sodipodi:r2="4.9517045"
       sodipodi:arg1="1.5167948"
       sodipodi:arg2="2.5639924"
       inkscape:flatsided="true"
       inkscape:rounded="0.05"
       inkscape:randomized="0"
       d="M 6.8821903,14.03165 C 6.0257802,14.077943 -2.8718347,0.42593532 -2.4837201,-0.33888385 -2.0956055,-1.103703 14.176187,-1.9832598 14.644483,-1.2647331 15.112778,-0.5462064 7.7386005,13.985358 6.8821903,14.03165 Z"
       inkscape:transform-center-x="-0.039183499"
       inkscape:transform-center-y="-3.0182823"
       transform="matrix(1.298634,-0.08152054,-0.08152054,-1.298634,0.45159541,60.001789)" />
    <path
       sodipodi:type="star"
       style="opacity:1;fill:#9b100d;fill-opacity:1;stroke:none;stroke-width:0.599001;stroke-opacity:1"
       id="path4261-1-4-2-8-1-6-1"
       sodipodi:sides="3"
       sodipodi:cx="6.347651"
       sodipodi:cy="4.1426778"
       sodipodi:r1="9.903409"
       sodipodi:r2="4.9517045"
       sodipodi:arg1="1.5167948"
       sodipodi:arg2="2.5639924"
       inkscape:flatsided="true"
       inkscape:rounded="0.05"
       inkscape:randomized="0"
       d="M 6.8821903,14.03165 C 6.0257802,14.077943 -2.8718347,0.42593532 -2.4837201,-0.33888385 -2.0956055,-1.103703 14.176187,-1.9832598 14.644483,-1.2647331 15.112778,-0.5462064 7.7386005,13.985358 6.8821903,14.03165 Z"
       inkscape:transform-center-x="-0.03918418"
       inkscape:transform-center-y="-3.0182823"
       transform="matrix(1.298634,-0.08152054,-0.08152054,-1.298634,14.222525,60.001789)" />
    <path
       sodipodi:type="star"
       style="opacity:1;fill:#a47845;fill-opacity:1;stroke:none;stroke-width:0.599001;stroke-opacity:1"
       id="path4261-1-4-2-8-0-0-9"
       sodipodi:sides="3"
       sodipodi:cx="6.347651"
       sodipodi:cy="4.1426778"
       sodipodi:r1="9.903409"
       sodipodi:r2="4.9517045"
       sodipodi:arg1="1.5167948"
       sodipodi:arg2="2.5639924"
       inkscape:flatsided="true"
       inkscape:rounded="0.05"
       inkscape:randomized="0"
       d="M 6.8821903,14.03165 C 6.0257802,14.077943 -2.8718347,0.42593532 -2.4837201,-0.33888385 -2.0956055,-1.103703 14.176187,-1.9832598 14.644483,-1.2647331 15.112778,-0.5462064 7.7386005,13.985358 6.8821903,14.03165 Z"
       inkscape:transform-center-x="-0.039183807"
       inkscape:transform-center-y="-3.0182825"
       transform="matrix(1.298634,-0.08152054,-0.08152054,-1.298634,27.993455,60.001792)" />
    <path
       transform="matrix(1.298634,-0.08152054,-0.08152054,-1.298634,41.764385,60.001792)"
       inkscape:transform-center-y="-3.0182825"
       inkscape:transform-center-x="-0.0391836"
       d="M 6.8821903,14.03165 C 6.0257802,14.077943 -2.8718347,0.42593532 -2.4837201,-0.33888385 -2.0956055,-1.103703 14.176187,-1.9832598 14.644483,-1.2647331 15.112778,-0.5462064 7.7386005,13.985358 6.8821903,14.03165 Z"
       inkscape:randomized="0"
       inkscape:rounded="0.05"
       inkscape:flatsided="true"
       sodipodi:arg2="2.5639924"
       sodipodi:arg1="1.5167948"
       sodipodi:r2="4.9517045"
       sodipodi:r1="9.903409"
       sodipodi:cy="4.1426778"
       sodipodi:cx="6.347651"
       sodipodi:sides="3"
       id="path4261-1-4-2-8-0-0-3-2"
       style="opacity:1;fill:#927e63;fill-opacity:1;stroke:none;stroke-width:0.599001;stroke-opacity:1"
       sodipodi:type="star" />
    <rect
       y="-0.8504464"
       x="-0.94494045"
       height="52.82217"
       width="52.916664"
       id="rect4494"
       style="opacity:1;fill:#e9b899;fill-opacity:0.33976832;stroke:none;stroke-width:0.599001;stroke-opacity:1" />
    <text
       id="text9"
       y="20.619274"
       x="17.628494"
       style="font-size:7.05556px;line-height:1.25;font-family:Arial;-inkscape-font-specification:Arial;stroke-width:0.264583"
       xml:space="preserve"><tspan
         style="font-style:normal;font-variant:normal;font-weight:normal;font-stretch:normal;font-size:7.05556px;font-family:'Microsoft Yi Baiti';-inkscape-font-specification:'Microsoft Yi Baiti';fill:#ffffff;stroke-width:0.264583"
         y="20.619274"
         x="17.628494"
         id="tspan7"
         sodipodi:role="line">Priyam:</tspan></text>
    <text
       id="text13"
       y="32.747707"
       x="4.3365827"
       style="font-size:16.9333px;line-height:1.25;font-family:Arial;-inkscape-font-specification:Arial;stroke-width:0.264583"
       xml:space="preserve"><tspan
         style="font-style:normal;font-variant:normal;font-weight:normal;font-stretch:normal;font-size:16.9333px;font-family:'Microsoft Yi Baiti';-inkscape-font-specification:'Microsoft Yi Baiti';fill:#ffffff;stroke-width:0.264583"
         y="32.747707"
         x="4.3365827"
         id="tspan11"
         sodipodi:role="line">Autumn</tspan></text>
  </g>
</svg>
