<?xml version="1.0" encoding="UTF-8" standalone="no"?>
<svg
   xmlns:dc="http://purl.org/dc/elements/1.1/"
   xmlns:cc="http://creativecommons.org/ns#"
   xmlns:rdf="http://www.w3.org/1999/02/22-rdf-syntax-ns#"
   xmlns:svg="http://www.w3.org/2000/svg"
   xmlns="http://www.w3.org/2000/svg"
   xmlns:sodipodi="http://sodipodi.sourceforge.net/DTD/sodipodi-0.dtd"
   xmlns:inkscape="http://www.inkscape.org/namespaces/inkscape"
   width="212.42261mm"
   height="212.42261mm"
   viewBox="0 0 212.42261 212.42261"
   version="1.1"
   id="svg8"
   inkscape:version="1.0 (4035a4fb49, 2020-05-01)"
   sodipodi:docname="chart.svg"
   inkscape:export-filename="C:\Users\kmwtb\Desktop\Others\priyam\assets\images\chart.png"
   inkscape:export-xdpi="200"
   inkscape:export-ydpi="200">
  <defs
     id="defs2" />
  <sodipodi:namedview
     borderlayer="true"
     fit-margin-bottom="0"
     fit-margin-right="0"
     fit-margin-left="0"
     fit-margin-top="0"
     id="base"
     pagecolor="#ffffff"
     bordercolor="#666666"
     borderopacity="1.0"
     inkscape:pageopacity="0.0"
     inkscape:pageshadow="2"
     inkscape:zoom="0.7"
     inkscape:cx="319.6662"
     inkscape:cy="459.93869"
     inkscape:document-units="mm"
     inkscape:current-layer="layer1"
     inkscape:document-rotation="0"
     showgrid="false"
     inkscape:window-width="1920"
     inkscape:window-height="1000"
     inkscape:window-x="-11"
     inkscape:window-y="-11"
     inkscape:window-maximized="1" />
  <metadata
     id="metadata5">
    <rdf:RDF>
      <cc:Work
         rdf:about="">
        <dc:format>image/svg+xml</dc:format>
        <dc:type
           rdf:resource="http://purl.org/dc/dcmitype/StillImage" />
        <dc:title></dc:title>
      </cc:Work>
    </rdf:RDF>
  </metadata>
  <g
     transform="translate(0.75595224,7.5595236)"
     inkscape:label="Layer 1"
     inkscape:groupmode="layer"
     id="layer1">
    <rect
       y="-7.5595236"
       x="-0.75595224"
       height="212.42261"
       width="212.42261"
       id="rect37"
       style="opacity:1;fill:#ffffff;fill-opacity:1;stroke-width:0.599001" />
    <path
       style="opacity:0.535032;fill:#ffeeaa;stroke:none;stroke-width:0.264583px;stroke-linecap:butt;stroke-linejoin:miter;stroke-opacity:1"
       d="m 138.07472,25.929171 c -5.62094,-0.235228 -11.20562,0.468468 -16.81994,0.566964 -4.47265,0.07847 -7.90128,0.321676 -11.90625,1.322917 -5.53178,1.382946 -7.04855,-0.429323 -10.772338,4.535714 -1.286245,1.714994 -2.018115,3.827062 -1.700892,6.04762 0.274391,1.920745 -0.526542,3.959651 0.755951,5.669642 7.019559,9.359379 18.470619,12.933127 29.482159,15.686011 5.51744,1.379358 11.22515,1.133829 16.81994,1.889882 3.53104,0.477165 18.73584,2.597629 21.92262,1.322916 1.57009,-0.628033 2.6295,-2.427782 3.96875,-3.401785 10.83026,-7.876553 -2.80328,-20.34419 -9.4494,-25.513392 -1.52972,-1.189779 -2.83851,-2.789725 -4.53572,-3.779763 -1.94113,-1.132331 -4.12728,-2.509691 -6.2366,-3.212797 -3.26475,-1.088249 -8.68745,0.996692 -11.52828,-1.133929 z"
       id="path961" />
    <path
       style="opacity:0.535032;fill:#e9afdd;stroke:none;stroke-width:0.264583px;stroke-linecap:butt;stroke-linejoin:miter;stroke-opacity:1"
       d="m 154.51669,31.97679 c -1.55984,3.779017 -2.81715,7.602307 -4.91369,11.150298 -0.13214,0.223615 -1.3618,1.805982 -1.51191,2.267857 -2.95955,9.106329 -5.0714,18.830158 -6.04762,28.348215 -0.59255,5.777362 -1.69669,13.318392 -0.37797,19.087795 1.17655,5.147417 2.4644,10.467785 4.34672,15.308085 2.87135,7.38345 7.56362,14.05152 13.60715,19.08779 0.40076,0.33397 1.29753,1.40472 1.5119,1.51191 1.31026,0.65513 6.50412,1.0198 8.31548,0.56696 0.43215,-0.10804 -0.0502,-0.94711 0.18899,-1.32292 0.67468,-1.06021 2.38349,-1.83965 3.21279,-2.83482 1.31874,-1.58248 2.43415,-4.28997 3.2128,-6.23661 1.18372,-2.9593 -0.56696,-13.60751 -0.56696,-17.57592 0,-7.178624 2.74257,-14.059444 1.88988,-21.733641 -0.25502,-2.295134 -0.10437,0.664273 -0.75595,-2.267858 -0.99471,-4.476189 -0.62713,-9.376502 -1.88988,-13.796129 -1.41892,-4.966194 -3.6604,-9.727908 -4.9137,-14.741072 -0.20096,-0.803844 -0.31894,-1.630368 -0.37797,-2.456844 -0.0673,-0.942541 0.094,-1.89457 0,-2.834823 -0.17834,-1.783384 -0.72288,-5.02531 -1.70089,-6.614582 -1.05554,-1.715253 -4.32588,-6.417253 -6.23661,-7.181548 -0.67759,-0.271037 -1.72639,-0.09768 -2.45685,-0.188988 -0.28594,-0.03574 -1.53583,-0.454522 -1.88988,-0.188988 -1.05948,0.794612 -1.48615,2.065993 -2.64583,2.645833 z"
       id="path982" />
    <path
       style="opacity:1;fill:#000000;fill-opacity:1;stroke-width:0.599001"
       id="path879"
       d="m 102.0505,26.226682 c 0.16648,2.604356 0.39359,5.205544 0.49944,7.813069 0.46564,11.470325 0.62426,25.295767 0.55556,36.470063 -0.11628,18.916768 -0.55503,33.009656 -1.46499,51.958956 -0.37166,7.73956 -0.89371,15.47117 -1.34057,23.20675 -1.58987,21.07811 -0.723457,11.71974 -2.408559,28.09213 -0.01148,0.13314 1.871382,0.29567 1.882882,0.16253 v 0 c 1.688627,-16.42483 0.820937,-7.04276 2.413347,-28.16311 0.44725,-7.74524 0.9698,-15.4865 1.34175,-23.23572 0.91074,-18.9742 1.34989,-33.089639 1.46601,-52.031347 0.0688,-11.229512 -0.0908,-25.045112 -0.55825,-36.56154 -0.10593,-2.609565 -0.33319,-5.212791 -0.49978,-7.819186 -0.008,-0.133418 -1.89444,-0.02601 -1.88684,0.107405 z" />
    <path
       style="opacity:1;fill:#000000;fill-opacity:1;stroke-width:0.599001"
       id="path895"
       d="m 28.589904,92.423293 c 2.530201,-0.20034 3.166026,-0.263845 6.453347,-0.394047 6.243849,-0.247298 15.190721,-0.414792 21.07397,-0.545272 26.57957,-0.589478 5.002747,-0.09803 34.231037,-0.773033 6.577941,-0.176622 13.156752,-0.324048 19.733842,-0.529865 14.7691,-0.462171 23.14658,-0.814999 37.75274,-1.559179 10.29376,-0.524465 18.98792,-1.060796 29.17959,-1.667198 0.12762,-0.03964 -0.43304,-1.844447 -0.56066,-1.804802 v 0 c -10.22076,0.606862 -18.83084,1.137391 -29.16094,1.661509 -14.57847,0.739667 -22.98125,1.09075 -37.72182,1.55021 -6.57521,0.204946 -13.152102,0.352182 -19.728143,0.528272 -34.366253,0.792869 -3.273827,0.08215 -34.230243,0.772816 -6.263463,0.139743 -14.617925,0.294439 -21.124244,0.559951 -1.793721,0.0732 -4.349979,0.240856 -6.36847,0.370131 -0.129436,0.03324 0.340558,1.863741 0.469994,1.830507 z" />
    <text
       xml:space="preserve"
       style="font-size:8.80639px;line-height:1.25;font-family:Arial;-inkscape-font-specification:Arial;stroke-width:0.550399"
       x="86.947243"
       y="20.956408"
       id="text899"><tspan
         sodipodi:role="line"
         id="tspan897"
         x="86.947243"
         y="20.956408"
         style="font-style:normal;font-variant:normal;font-weight:normal;font-stretch:normal;font-family:'MV Boli';-inkscape-font-specification:'MV Boli';stroke-width:0.550399">Upbeat</tspan></text>
    <text
       id="text899-2"
       y="184.06949"
       x="84.601875"
       style="font-size:8.80639px;line-height:1.25;font-family:Arial;-inkscape-font-specification:Arial;stroke-width:0.550399"
       xml:space="preserve"><tspan
         style="font-style:normal;font-variant:normal;font-weight:normal;font-stretch:normal;font-family:'MV Boli';-inkscape-font-specification:'MV Boli';stroke-width:0.550399"
         y="184.06949"
         x="84.601875"
         id="tspan897-4"
         sodipodi:role="line">Mellow</tspan></text>
    <text
       xml:space="preserve"
       style="font-size:8.80639px;line-height:1.25;font-family:Arial;-inkscape-font-specification:Arial;stroke-width:0.550399"
       x="179.37364"
       y="86.930779"
       id="text899-2-5"><tspan
         sodipodi:role="line"
         id="tspan897-4-2"
         x="179.37364"
         y="86.930779"
         style="font-style:normal;font-variant:normal;font-weight:normal;font-stretch:normal;font-family:'MV Boli';-inkscape-font-specification:'MV Boli';stroke-width:0.550399">Happy</tspan></text>
    <text
       id="text899-2-5-5"
       y="93.209328"
       x="9.4987402"
       style="font-size:8.80639px;line-height:1.25;font-family:Arial;-inkscape-font-specification:Arial;stroke-width:0.550399"
       xml:space="preserve"><tspan
         style="font-style:normal;font-variant:normal;font-weight:normal;font-stretch:normal;font-family:'MV Boli';-inkscape-font-specification:'MV Boli';stroke-width:0.550399"
         y="93.209328"
         x="9.4987402"
         id="tspan897-4-2-2"
         sodipodi:role="line">Sad</tspan></text>
    <text
       xml:space="preserve"
       style="font-size:4.23333px;line-height:1.25;font-family:Arial;-inkscape-font-specification:Arial;stroke-width:0.264583"
       x="124.84554"
       y="24.039293"
       id="text986"><tspan
         sodipodi:role="line"
         id="tspan984"
         x="124.84554"
         y="24.039293"
         style="font-style:normal;font-variant:normal;font-weight:normal;font-stretch:normal;font-family:'MV Boli';-inkscape-font-specification:'MV Boli';stroke-width:0.264583">Summer</tspan></text>
    <text
       id="text986-3"
       y="139.39268"
       x="-81.781937"
       style="font-size:4.23333px;line-height:1.25;font-family:Arial;-inkscape-font-specification:Arial;stroke-width:0.264583"
       xml:space="preserve"
       transform="rotate(-90)"><tspan
         style="font-style:normal;font-variant:normal;font-weight:normal;font-stretch:normal;font-family:'MV Boli';-inkscape-font-specification:'MV Boli';stroke-width:0.264583"
         y="139.39268"
         x="-81.781937"
         id="tspan984-8"
         sodipodi:role="line">Spring</tspan></text>
    <path
       style="opacity:0.627389;fill:#e9c6af;stroke:none;stroke-width:0.264583px;stroke-linecap:butt;stroke-linejoin:miter;stroke-opacity:1"
       d="m 100.15223,166.55964 c 5.53076,-7.75825 7.06995,-18.30765 13.92101,-25.15871 1.13452,-1.13452 1.90327,-2.4494 3.2128,-3.40178 8.3673,-6.08532 19.58959,-7.7541 29.48214,-9.63839 3.49617,-0.66594 7.91438,0.77341 11.33929,1.13392 1.46652,0.15438 2.62918,1.25438 3.96875,1.7009 1.50597,0.50199 4.53838,0.54567 5.85863,1.70089 3.50358,3.06564 6.62938,6.46507 8.31547,10.96131 0.38673,1.03127 0.16934,2.15245 0.56697,3.2128 0.64354,1.71611 1.21937,3.18167 0.94494,5.10267 -0.43173,3.02211 -11.48982,13.25479 -13.79613,14.55209 -3.59562,2.02253 -7.98294,2.98909 -11.90625,4.15774 -8.45997,2.51998 -16.82658,4.34672 -25.70238,4.34672 -4.65208,0 -8.62185,-2.20863 -13.04018,-3.2128 -3.06832,-0.69734 -6.2505,-1.1374 -9.26042,-1.88988 -1.35195,-0.33798 -3.22697,-2.84981 -3.90464,-3.56748"
       id="path1012" />
    <text
       xml:space="preserve"
       style="font-size:4.23333px;line-height:1.25;font-family:Arial;-inkscape-font-specification:Arial;stroke-width:0.264583"
       x="110.23586"
       y="132.1537"
       id="text986-3-7"><tspan
         sodipodi:role="line"
         id="tspan984-8-5"
         x="110.23586"
         y="132.1537"
         style="font-style:normal;font-variant:normal;font-weight:normal;font-stretch:normal;font-family:'MV Boli';-inkscape-font-specification:'MV Boli';stroke-width:0.264583">Autumn</tspan></text>
    <path
       style="opacity:0.347134;fill:#37abc8;stroke:none;stroke-width:0.264583px;stroke-linecap:butt;stroke-linejoin:miter;stroke-opacity:1"
       d="m 30.540479,102.09138 c -4.172319,5.47908 -5.102679,14.49633 -5.102679,21.1667 0,7.01749 1.137265,13.91553 4.535714,20.03274 2.432127,4.37782 9.312802,13.89848 14.930059,14.74107 5.775151,0.86627 0.238967,-0.44928 4.913691,0.56696 2.964532,0.64447 5.305528,0.87964 8.315476,0.37798 3.532833,-0.58881 5.373558,-4.54537 7.9375,-6.4256 6.560626,-4.81112 9.627676,-9.49292 11.717263,-17.3869 1.098891,-4.15137 4.227414,-12.59571 3.023809,-17.00893 -0.334992,-1.2283 -3.01448,-5.47132 -3.779763,-6.2366 -1.804723,-1.80473 -13.418402,-6.0186 -16.063987,-6.42561 -2.998713,-0.46135 -5.88423,-0.19059 -8.88244,-0.37798 -3.665289,-0.22908 -7.133278,-1.12202 -10.772323,-1.51191 -3.577923,-0.38335 -7.549261,0.0996 -10.77232,-1.51192 z"
       id="path1032" />
    <text
       id="text986-3-7-3"
       y="102.58714"
       x="41.696838"
       style="font-size:4.23333px;line-height:1.25;font-family:Arial;-inkscape-font-specification:Arial;stroke-width:0.264583"
       xml:space="preserve"><tspan
         style="font-style:normal;font-variant:normal;font-weight:normal;font-stretch:normal;font-family:'MV Boli';-inkscape-font-specification:'MV Boli';stroke-width:0.264583"
         y="102.58714"
         x="41.696838"
         id="tspan984-8-5-8"
         sodipodi:role="line">Winter</tspan></text>
  </g>
</svg>
