<?xml version="1.0" encoding="UTF-8" standalone="no"?>
<svg
   xmlns:dc="http://purl.org/dc/elements/1.1/"
   xmlns:cc="http://creativecommons.org/ns#"
   xmlns:rdf="http://www.w3.org/1999/02/22-rdf-syntax-ns#"
   xmlns:svg="http://www.w3.org/2000/svg"
   xmlns="http://www.w3.org/2000/svg"
   xmlns:sodipodi="http://sodipodi.sourceforge.net/DTD/sodipodi-0.dtd"
   xmlns:inkscape="http://www.inkscape.org/namespaces/inkscape"
   inkscape:export-ydpi="200"
   inkscape:export-xdpi="200"
   inkscape:export-filename="C:\Users\kmwtb\Desktop\Others\priyam\assets\images\summer.png"
   width="190"
   height="190"
   viewBox="0 0 50.270834 50.270834"
   version="1.1"
   id="svg8"
   inkscape:version="1.0 (4035a4fb49, 2020-05-01)"
   sodipodi:docname="summer.svg">
  <defs
     id="defs2" />
  <sodipodi:namedview
     id="base"
     pagecolor="#ffffff"
     bordercolor="#666666"
     borderopacity="1.0"
     inkscape:pageopacity="1"
     inkscape:pageshadow="2"
     inkscape:zoom="1.4"
     inkscape:cx="22.245526"
     inkscape:cy="23.541949"
     inkscape:document-units="mm"
     inkscape:current-layer="layer1"
     inkscape:document-rotation="0"
     showgrid="false"
     units="px"
     borderlayer="true"
     inkscape:window-width="1920"
     inkscape:window-height="1000"
     inkscape:window-x="-11"
     inkscape:window-y="-11"
     inkscape:window-maximized="1"
     inkscape:snap-bbox="true" />
  <metadata
     id="metadata5">
    <rdf:RDF>
      <cc:Work
         rdf:about="">
        <dc:format>image/svg+xml</dc:format>
        <dc:type
           rdf:resource="http://purl.org/dc/dcmitype/StillImage" />
        <dc:title />
      </cc:Work>
    </rdf:RDF>
  </metadata>
  <g
     inkscape:label="Layer 1"
     inkscape:groupmode="layer"
     id="layer1">
    <path
       d="M -12.672588,0.23454303 A 16.351665,15.73987 0 0 1 4.5162284,-14.412223 16.351665,15.73987 0 0 1 19.980438,1.9189216 16.351665,15.73987 0 0 1 3.2409918,17.04025 16.351665,15.73987 0 0 1 -12.709645,1.1485119 Z"
       sodipodi:arc-type="chord"
       sodipodi:open="true"
       sodipodi:end="3.151541"
       sodipodi:start="3.2096605"
       sodipodi:ry="15.73987"
       sodipodi:rx="16.351665"
       sodipodi:cy="1.305095"
       sodipodi:cx="3.6412115"
       sodipodi:type="arc"
       id="path29"
       style="opacity:1;fill:#6fddb4;fill-opacity:1;stroke-width:0.997201" />
    <path
       d="M -6.5854594,24.079045 A 16.351667,15.73987 0 0 1 10.603359,9.4322794 16.351667,15.73987 0 0 1 26.06757,25.763424 16.351667,15.73987 0 0 1 9.3281223,40.884752 16.351667,15.73987 0 0 1 -6.6225162,24.993014 Z"
       sodipodi:arc-type="chord"
       sodipodi:open="true"
       sodipodi:end="3.151541"
       sodipodi:start="3.2096605"
       sodipodi:ry="15.73987"
       sodipodi:rx="16.351667"
       sodipodi:cy="25.149597"
       sodipodi:cx="9.7283421"
       sodipodi:type="arc"
       id="path29-4-7"
       style="opacity:1;fill:#e2ce5d;fill-opacity:1;stroke-width:0.997201" />
    <path
       style="opacity:1;fill:#dd6a8a;fill-opacity:1;stroke-width:0.997201"
       id="path29-4"
       sodipodi:type="arc"
       sodipodi:cx="36.382038"
       sodipodi:cy="24.39179"
       sodipodi:rx="16.351667"
       sodipodi:ry="15.73987"
       sodipodi:start="3.2096605"
       sodipodi:end="3.151541"
       sodipodi:open="true"
       sodipodi:arc-type="chord"
       d="M 20.068237,23.321238 A 16.351667,15.73987 0 0 1 37.257055,8.6744726 16.351667,15.73987 0 0 1 52.721266,25.005617 16.351667,15.73987 0 0 1 35.981818,40.126945 16.351667,15.73987 0 0 1 20.03118,24.235207 Z" />
    <path
       d="M 10.378366,0.35085887 A 16.351669,15.73987 0 0 1 27.567186,-14.295907 16.351669,15.73987 0 0 1 43.031399,2.0352375 16.351669,15.73987 0 0 1 26.291949,17.156566 16.351669,15.73987 0 0 1 10.341309,1.2648277 Z"
       sodipodi:arc-type="chord"
       sodipodi:open="true"
       sodipodi:end="3.151541"
       sodipodi:start="3.2096605"
       sodipodi:ry="15.73987"
       sodipodi:rx="16.351669"
       sodipodi:cy="1.4214108"
       sodipodi:cx="26.692169"
       sodipodi:type="arc"
       id="path29-4-7-5-0"
       style="opacity:1;mix-blend-mode:normal;fill:#2e9dcf;fill-opacity:1;stroke-width:0.997201" />
    <path
       style="opacity:1;fill:#e3b081;fill-opacity:1;stroke-width:0.997201"
       id="path29-4-7-5"
       sodipodi:type="arc"
       sodipodi:cx="25.7642"
       sodipodi:cy="47.913937"
       sodipodi:rx="16.351667"
       sodipodi:ry="15.73987"
       sodipodi:start="3.2096605"
       sodipodi:end="3.151541"
       sodipodi:open="true"
       sodipodi:arc-type="chord"
       d="M 9.4503987,46.843385 A 16.351667,15.73987 0 0 1 26.639217,32.196619 16.351667,15.73987 0 0 1 42.103429,48.527763 16.351667,15.73987 0 0 1 25.36398,63.649091 16.351667,15.73987 0 0 1 9.413342,47.757354 Z" />
    <path
       style="opacity:1;mix-blend-mode:normal;fill:#927cc7;fill-opacity:1;stroke-width:0.997201"
       id="path29-4-7-5-0-4"
       sodipodi:type="arc"
       sodipodi:cx="44.985497"
       sodipodi:cy="1.7070878"
       sodipodi:rx="16.351671"
       sodipodi:ry="15.73987"
       sodipodi:start="3.2096605"
       sodipodi:end="3.151541"
       sodipodi:open="true"
       sodipodi:arc-type="chord"
       d="M 28.671691,0.63653583 A 16.351671,15.73987 0 0 1 45.860514,-14.01023 16.351671,15.73987 0 0 1 61.324729,2.3209144 16.351671,15.73987 0 0 1 44.585277,17.442243 16.351671,15.73987 0 0 1 28.634634,1.5505047 Z" />
    <path
       d="M 33.016582,45.063889 A 16.351671,15.73987 0 0 1 50.205404,30.417124 16.351671,15.73987 0 0 1 65.669619,46.748268 16.351671,15.73987 0 0 1 48.930167,61.869596 16.351671,15.73987 0 0 1 32.979525,45.977858 Z"
       sodipodi:arc-type="chord"
       sodipodi:open="true"
       sodipodi:end="3.151541"
       sodipodi:start="3.2096605"
       sodipodi:ry="15.73987"
       sodipodi:rx="16.351671"
       sodipodi:cy="46.134441"
       sodipodi:cx="49.330387"
       sodipodi:type="arc"
       id="path29-4-7-5-0-4-8"
       style="opacity:1;mix-blend-mode:normal;fill:#e4847f;fill-opacity:1;stroke-width:0.997201" />
    <path
       style="opacity:1;mix-blend-mode:normal;fill:#f08d8b;fill-opacity:1;stroke-width:0.997201"
       id="path29-4-7-5-0-4-8-9"
       sodipodi:type="arc"
       sodipodi:cx="1.1383201"
       sodipodi:cy="47.814686"
       sodipodi:rx="16.351671"
       sodipodi:ry="15.73987"
       sodipodi:start="3.2096605"
       sodipodi:end="3.151541"
       sodipodi:open="true"
       sodipodi:arc-type="chord"
       d="M -15.175485,46.744134 A 16.351671,15.73987 0 0 1 2.0133372,32.097368 16.351671,15.73987 0 0 1 17.477552,48.428512 16.351671,15.73987 0 0 1 0.73810023,63.549841 16.351671,15.73987 0 0 1 -15.212542,47.658103 Z" />
    <rect
       y="-2.645834"
       x="-2.7970271"
       height="56.696426"
       width="55.751484"
       id="rect997"
       style="opacity:0.33865815;fill:#ffffff;fill-opacity:1;stroke-width:0.599001" />
    <text
       id="text9"
       y="22.024982"
       x="14.865075"
       style="font-size:7.70212px;line-height:1.25;font-family:Arial;-inkscape-font-specification:Arial;stroke-width:0.288829"
       xml:space="preserve"><tspan
         style="font-style:normal;font-variant:normal;font-weight:normal;font-stretch:normal;font-size:7.70212px;font-family:'Microsoft Yi Baiti';-inkscape-font-specification:'Microsoft Yi Baiti';stroke-width:0.288829"
         y="22.024982"
         x="14.865075"
         id="tspan7"
         sodipodi:role="line">Priyam:</tspan></text>
    <text
       xml:space="preserve"
       style="font-size:15.4042px;line-height:1.25;font-family:Arial;-inkscape-font-specification:Arial;stroke-width:0.288829"
       x="3.6239483"
       y="33.573483"
       id="text9-8"><tspan
         sodipodi:role="line"
         id="tspan7-5"
         x="3.6239483"
         y="33.573483"
         style="font-style:normal;font-variant:normal;font-weight:normal;font-stretch:normal;font-size:15.4042px;font-family:'Microsoft Yi Baiti';-inkscape-font-specification:'Microsoft Yi Baiti';stroke-width:0.288829">Summer</tspan></text>
  </g>
</svg>
