<?xml version="1.0" encoding="UTF-8" standalone="no"?>
<svg
   xmlns:dc="http://purl.org/dc/elements/1.1/"
   xmlns:cc="http://creativecommons.org/ns#"
   xmlns:rdf="http://www.w3.org/1999/02/22-rdf-syntax-ns#"
   xmlns:svg="http://www.w3.org/2000/svg"
   xmlns="http://www.w3.org/2000/svg"
   xmlns:sodipodi="http://sodipodi.sourceforge.net/DTD/sodipodi-0.dtd"
   xmlns:inkscape="http://www.inkscape.org/namespaces/inkscape"
   inkscape:export-ydpi="200"
   inkscape:export-xdpi="200"
   inkscape:export-filename="C:\Users\kmwtb\Desktop\Others\priyam\assets\images\winter.png"
   width="190"
   height="190"
   viewBox="0 0 50.270834 50.270834"
   version="1.1"
   id="svg8"
   inkscape:version="1.0 (4035a4fb49, 2020-05-01)"
   sodipodi:docname="winter.svg">
  <defs
     id="defs2" />
  <sodipodi:namedview
     id="base"
     pagecolor="#ffffff"
     bordercolor="#666666"
     borderopacity="1.0"
     inkscape:pageopacity="1"
     inkscape:pageshadow="2"
     inkscape:zoom="1.979899"
     inkscape:cx="-177.85166"
     inkscape:cy="98.353893"
     inkscape:document-units="mm"
     inkscape:current-layer="layer1"
     inkscape:document-rotation="0"
     showgrid="false"
     units="px"
     borderlayer="true"
     inkscape:window-width="1920"
     inkscape:window-height="1000"
     inkscape:window-x="-11"
     inkscape:window-y="-11"
     inkscape:window-maximized="1"
     inkscape:snap-bbox="true" />
  <metadata
     id="metadata5">
    <rdf:RDF>
      <cc:Work
         rdf:about="">
        <dc:format>image/svg+xml</dc:format>
        <dc:type
           rdf:resource="http://purl.org/dc/dcmitype/StillImage" />
        <dc:title />
      </cc:Work>
    </rdf:RDF>
  </metadata>
  <g
     inkscape:label="Layer 1"
     inkscape:groupmode="layer"
     id="layer1">
    <path
       sodipodi:type="star"
       style="opacity:1;fill:#b0b0b0;fill-opacity:0.88416982;stroke:none;stroke-width:0.544404"
       id="path9-2"
       sodipodi:sides="6"
       sodipodi:cx="6.6381218"
       sodipodi:cy="54.222305"
       sodipodi:r1="22.190241"
       sodipodi:r2="11.095118"
       sodipodi:arg1="1.0557235"
       sodipodi:arg2="1.5793223"
       inkscape:flatsided="false"
       inkscape:rounded="0.05"
       inkscape:randomized="0"
       d="M 17.568995,73.533514 C 16.970679,73.872184 7.2310179,65.322881 6.5435261,65.31702 5.8560343,65.311158 -4.0279849,73.693146 -4.6204394,73.344324 -5.212894,72.995502 -2.678811,60.286057 -3.0174806,59.68774 -3.3561502,59.089424 -15.557174,54.720607 -15.551313,54.033115 c 0.0059,-0.687492 12.2796057,-4.847634 12.6284279,-5.440089 0.3488223,-0.592455 -1.9681828,-13.34326 -1.3698666,-13.68193 0.5983162,-0.338669 10.337977,8.210633 11.0254688,8.216495 0.6874918,0.0059 10.5715109,-8.376127 11.1639659,-8.027304 0.592454,0.348822 -1.941629,13.058267 -1.602959,13.656583 0.338669,0.598316 12.539694,4.967134 12.533832,5.654626 -0.0059,0.687492 -12.279605,4.847634 -12.628428,5.440089 -0.348822,0.592454 1.968183,13.34326 1.369867,13.681929 z" />
    <path
       d="m 35.964184,74.001236 c -0.598316,0.33867 -10.337978,-8.210635 -11.02547,-8.216496 -0.687491,-0.0059 -10.571511,8.376128 -11.163966,8.027306 -0.592455,-0.348823 1.941629,-13.058269 1.60296,-13.656586 -0.33867,-0.598316 -12.539696,-4.967133 -12.5338343,-5.654625 0.00586,-0.687492 12.2796073,-4.847634 12.6284293,-5.440089 0.348823,-0.592455 -1.968184,-13.343262 -1.369867,-13.681931 0.598316,-0.33867 10.337978,8.210634 11.025469,8.216496 0.687492,0.0059 10.571512,-8.376128 11.163967,-8.027306 0.592455,0.348822 -1.941629,13.058269 -1.60296,13.656585 0.33867,0.598317 12.539696,4.967134 12.533834,5.654626 -0.0059,0.687492 -12.279607,4.847634 -12.628429,5.440089 -0.348823,0.592454 1.968183,13.343262 1.369867,13.681931 z"
       inkscape:randomized="0"
       inkscape:rounded="0.05"
       inkscape:flatsided="false"
       sodipodi:arg2="1.5793223"
       sodipodi:arg1="1.0557235"
       sodipodi:r2="11.095118"
       sodipodi:r1="22.190243"
       sodipodi:cy="54.690025"
       sodipodi:cx="25.033309"
       sodipodi:sides="6"
       id="path9-6-2"
       style="opacity:1;fill:#4a96ba;fill-opacity:1;stroke:none;stroke-width:0.544404"
       sodipodi:type="star" />
    <path
       sodipodi:type="star"
       style="opacity:1;fill:#a3c2d7;fill-opacity:1;stroke:none;stroke-width:0.544404"
       id="path9-6-3-9"
       sodipodi:sides="6"
       sodipodi:cx="42.004929"
       sodipodi:cy="56.160011"
       sodipodi:r1="22.190245"
       sodipodi:r2="11.095118"
       sodipodi:arg1="1.0557235"
       sodipodi:arg2="1.5793223"
       inkscape:flatsided="false"
       inkscape:rounded="0.05"
       inkscape:randomized="0"
       d="m 52.935804,75.471224 c -0.598317,0.338669 -10.337979,-8.210637 -11.025471,-8.216498 -0.687492,-0.0059 -10.571513,8.376129 -11.163967,8.027307 -0.592455,-0.348822 1.94163,-13.05827 1.60296,-13.656587 -0.338669,-0.598316 -12.539697,-4.967133 -12.533836,-5.654625 0.0059,-0.687492 12.27961,-4.847634 12.628432,-5.440089 0.348822,-0.592455 -1.968185,-13.343264 -1.369869,-13.681933 0.598317,-0.33867 10.337979,8.210636 11.025471,8.216498 0.687492,0.0059 10.571513,-8.37613 11.163968,-8.027308 0.592454,0.348823 -1.941631,13.058271 -1.602961,13.656587 0.338669,0.598317 12.539697,4.967134 12.533836,5.654626 -0.0059,0.687492 -12.279609,4.847634 -12.628432,5.440089 -0.348822,0.592454 1.968185,13.343263 1.369869,13.681933 z" />
    <path
       sodipodi:type="star"
       style="opacity:1;fill:#cbdcd6;fill-opacity:1;stroke:none;stroke-width:0.544404"
       id="path9-1-3-4"
       sodipodi:sides="6"
       sodipodi:cx="46.526383"
       sodipodi:cy="31.42566"
       sodipodi:r1="22.190245"
       sodipodi:r2="11.095118"
       sodipodi:arg1="1.0557235"
       sodipodi:arg2="1.5793223"
       inkscape:flatsided="false"
       inkscape:rounded="0.05"
       inkscape:randomized="0"
       d="m 57.457258,50.736872 c -0.598317,0.338669 -10.337979,-8.210637 -11.025471,-8.216499 -0.687492,-0.0059 -10.571513,8.37613 -11.163967,8.027308 -0.592455,-0.348822 1.94163,-13.05827 1.60296,-13.656587 -0.338669,-0.598316 -12.539697,-4.967133 -12.533836,-5.654625 0.0059,-0.687492 12.279609,-4.847634 12.628432,-5.440089 0.348822,-0.592455 -1.968185,-13.343264 -1.369869,-13.681933 0.598317,-0.33867 10.337979,8.210636 11.025471,8.216498 0.687492,0.0059 10.571513,-8.37613 11.163967,-8.027308 0.592455,0.348823 -1.94163,13.058271 -1.60296,13.656587 0.338669,0.598317 12.539697,4.967134 12.533836,5.654626 -0.0059,0.687492 -12.27961,4.847634 -12.628432,5.440088 -0.348822,0.592455 1.968185,13.343264 1.369869,13.681934 z" />
    <path
       d="m 41.615895,50.721748 c -0.598317,0.33867 -10.337978,-8.210634 -11.02547,-8.216496 -0.687492,-0.0059 -10.571512,8.376128 -11.163967,8.027306 -0.592454,-0.348822 1.94163,-13.058269 1.60296,-13.656585 C 20.690749,36.277656 8.4897225,31.908839 8.4955842,31.221347 8.5014459,30.533855 20.775191,26.373713 21.124014,25.781258 21.472836,25.188804 19.15583,12.437997 19.754146,12.099327 c 0.598316,-0.33867 10.337978,8.210635 11.02547,8.216496 0.687492,0.0059 10.571512,-8.376128 11.163966,-8.027305 0.592455,0.348822 -1.941629,13.058268 -1.602959,13.656585 0.338669,0.598316 12.539695,4.967133 12.533834,5.654625 -0.0059,0.687492 -12.279608,4.847634 -12.62843,5.440089 -0.348822,0.592455 1.968184,13.343262 1.369868,13.681931 z"
       inkscape:randomized="0"
       inkscape:rounded="0.05"
       inkscape:flatsided="false"
       sodipodi:arg2="1.5793223"
       sodipodi:arg1="1.0557235"
       sodipodi:r2="11.095118"
       sodipodi:r1="22.190243"
       sodipodi:cy="31.410538"
       sodipodi:cx="30.685021"
       sodipodi:sides="6"
       id="path9-1-3"
       style="opacity:1;fill:#8f9bbb;fill-opacity:1;stroke:none;stroke-width:0.544404"
       sodipodi:type="star" />
    <path
       d="M 25.724777,50.866127 C 25.12646,51.204797 15.386799,42.655492 14.699307,42.649631 14.011815,42.643769 4.127795,51.025759 3.5353404,50.676937 2.9428858,50.328114 5.4769698,37.618668 5.1383002,37.020351 4.7996306,36.422035 -7.4013955,32.053218 -7.3955339,31.365726 -7.3896722,30.678234 4.8840734,26.518092 5.2328957,25.925637 5.581718,25.333182 3.2647118,12.582375 3.8630281,12.243706 c 0.5983163,-0.33867 10.3379779,8.210634 11.0254699,8.216496 0.687492,0.0059 10.571512,-8.376128 11.163966,-8.027306 0.592455,0.348823 -1.941629,13.058269 -1.602959,13.656585 0.338669,0.598317 12.539695,4.967134 12.533834,5.654626 -0.0059,0.687492 -12.279608,4.847634 -12.62843,5.440089 -0.348822,0.592454 1.968184,13.343262 1.369868,13.681931 z"
       inkscape:randomized="0"
       inkscape:rounded="0.05"
       inkscape:flatsided="false"
       sodipodi:arg2="1.5793223"
       sodipodi:arg1="1.0557235"
       sodipodi:r2="11.095118"
       sodipodi:r1="22.190243"
       sodipodi:cy="31.554917"
       sodipodi:cx="14.793902"
       sodipodi:sides="6"
       id="path9-1-7"
       style="opacity:1;fill:#417d9a;fill-opacity:1;stroke:none;stroke-width:0.544404"
       sodipodi:type="star" />
    <path
       d="M 17.926292,24.456145 C 17.327976,24.794815 7.5883162,16.245514 6.9008245,16.239652 6.2133327,16.233791 -3.6706856,24.615777 -4.2631401,24.266955 -4.8555945,23.918133 -2.3215127,11.208689 -2.6601822,10.610373 -2.9988517,10.012057 -15.199874,5.6432392 -15.194012,4.9557474 -15.188151,4.2682557 -2.9144089,0.10811319 -2.5655867,-0.48434129 -2.2167645,-1.0767958 -4.5337686,-13.8276 -3.9354524,-14.166269 c 0.5983161,-0.33867 10.3379762,8.210631 11.0254679,8.2164927 0.6874917,0.00586 10.5715105,-8.3761247 11.1639645,-8.0273027 0.592454,0.348822 -1.941627,13.05826582 -1.602958,13.65658197 0.33867,0.59831613 12.539692,4.96713383 12.53383,5.65462553 -0.0059,0.6874918 -12.279603,4.8476345 -12.628425,5.4400885 -0.348823,0.592455 1.968182,13.343259 1.369865,13.681928 z"
       inkscape:randomized="0"
       inkscape:rounded="0.05"
       inkscape:flatsided="false"
       sodipodi:arg2="1.5793223"
       sodipodi:arg1="1.0557235"
       sodipodi:r2="11.095118"
       sodipodi:r1="22.190239"
       sodipodi:cy="5.144938"
       sodipodi:cx="6.9954202"
       sodipodi:sides="6"
       id="path9"
       style="fill:#61a3c3;fill-opacity:1;stroke-width:0.544403;opacity:1;stroke:none"
       sodipodi:type="star" />
    <path
       sodipodi:type="star"
       style="opacity:1;fill:#53a398;fill-opacity:1;stroke:none;stroke-width:0.544404"
       id="path9-1"
       sodipodi:sides="6"
       sodipodi:cx="-1.124067"
       sodipodi:cy="31.554921"
       sodipodi:r1="22.190241"
       sodipodi:r2="11.095118"
       sodipodi:arg1="1.0557235"
       sodipodi:arg2="1.5793223"
       inkscape:flatsided="false"
       inkscape:rounded="0.05"
       inkscape:randomized="0"
       d="m 9.8068064,50.866129 c -0.5983162,0.33867 -10.33797705,-8.210633 -11.0254689,-8.216494 -0.6874918,-0.0059 -10.5715105,8.376126 -11.1639655,8.027304 -0.592455,-0.348823 1.941628,-13.058268 1.602959,-13.656584 -0.33867,-0.598316 -12.539694,-4.967134 -12.533832,-5.654625 0.0059,-0.687492 12.279605,-4.847635 12.628427,-5.440089 0.348823,-0.592455 -1.968182,-13.34326 -1.369866,-13.68193 0.598316,-0.338669 10.3379767,8.210633 11.0254686,8.216495 0.68749179,0.0059 10.5715109,-8.376127 11.1639654,-8.027304 0.592455,0.348822 -1.9416283,13.058267 -1.6029587,13.656583 0.3386695,0.598316 12.5396937,4.967134 12.5338317,5.654626 -0.0059,0.687492 -12.279605,4.847634 -12.6284273,5.440088 -0.3488222,0.592455 1.9681833,13.343261 1.3698667,13.68193 z" />
    <path
       sodipodi:type="star"
       style="opacity:1;fill:#ccc7bc;fill-opacity:1;stroke:none;stroke-width:0.544404"
       id="path9-6"
       sodipodi:sides="6"
       sodipodi:cx="25.390605"
       sodipodi:cy="5.6126596"
       sodipodi:r1="22.190241"
       sodipodi:r2="11.095118"
       sodipodi:arg1="1.0557235"
       sodipodi:arg2="1.5793223"
       inkscape:flatsided="false"
       inkscape:rounded="0.05"
       inkscape:randomized="0"
       d="M 36.321479,24.923869 C 35.723163,25.262538 25.983502,16.713235 25.29601,16.707374 24.608519,16.701512 14.724499,25.0835 14.132045,24.734678 13.53959,24.385856 16.073673,11.676411 15.735004,11.078094 15.396334,10.479778 3.1953099,6.1109607 3.2011716,5.4234689 3.2070333,4.7359771 15.480777,0.57583473 15.829599,-0.01661983 16.178422,-0.60907437 13.861416,-13.35988 14.459733,-13.69855 c 0.598316,-0.338669 10.337977,8.2106335 11.025468,8.2164951 0.687492,0.00586 10.571511,-8.3761261 11.163966,-8.0273041 0.592454,0.348822 -1.941628,13.05826721 -1.602959,13.65658343 0.33867,0.5983162 12.539694,4.96713377 12.533832,5.65462557 -0.0059,0.6874919 -12.279605,4.847634 -12.628427,5.440089 -0.348823,0.592454 1.968182,13.34326 1.369866,13.68193 z" />
    <path
       d="m 53.293095,26.393853 c -0.598316,0.33867 -10.337978,-8.210634 -11.02547,-8.216496 -0.687492,-0.0059 -10.571512,8.376128 -11.163966,8.027306 C 30.511204,25.85584 33.045288,13.146394 32.706619,12.548078 32.367949,11.949761 20.166923,7.5809439 20.172785,6.893452 20.178646,6.2059601 32.452392,2.0458179 32.801214,1.4533633 33.150036,0.86090865 30.83303,-11.889899 31.431346,-12.228568 c 0.598317,-0.33867 10.337978,8.2106346 11.02547,8.2164962 0.687492,0.00586 10.571512,-8.3761282 11.163967,-8.0273062 0.592454,0.348823 -1.94163,13.0582692 -1.60296,13.6565855 0.33867,0.5983163 12.539696,4.9671337 12.533834,5.6546256 -0.0059,0.687492 -12.279607,4.8476339 -12.62843,5.4400889 -0.348822,0.592454 1.968184,13.343262 1.369868,13.681931 z"
       inkscape:randomized="0"
       inkscape:rounded="0.05"
       inkscape:flatsided="false"
       sodipodi:arg2="1.5793223"
       sodipodi:arg1="1.0557235"
       sodipodi:r2="11.095118"
       sodipodi:r1="22.190243"
       sodipodi:cy="7.0826425"
       sodipodi:cx="42.362219"
       sodipodi:sides="6"
       id="path9-6-3"
       style="opacity:1;fill:#9eb1ac;fill-opacity:1;stroke:none;stroke-width:0.544404"
       sodipodi:type="star" />
    <text
       id="text1024"
       y="28.731474"
       x="10.557146"
       style="font-size:4.23333px;line-height:1.25;font-family:Arial;-inkscape-font-specification:Arial;stroke-width:0.264583"
       xml:space="preserve"><tspan
         id="tspan1026"
         style="stroke-width:0.264583"
         y="28.731474"
         x="10.557146"
         sodipodi:role="line" /></text>
    <rect
       y="-2.271791"
       x="-1.0690781"
       height="53.58754"
       width="53.186634"
       id="rect1034"
       style="opacity:0.23642173;fill:#002255;fill-opacity:0.88417;stroke:none;stroke-width:0.599001" />
    <text
       id="text1032"
       y="20.157362"
       x="17.506151"
       style="font-size:7.05556px;line-height:1.25;font-family:Arial;-inkscape-font-specification:Arial;fill:#ffffff;stroke-width:0.264583"
       xml:space="preserve"><tspan
         style="font-style:normal;font-variant:normal;font-weight:normal;font-stretch:normal;font-size:7.05556px;font-family:'Microsoft Yi Baiti';-inkscape-font-specification:'Microsoft Yi Baiti';fill:#ffffff;stroke-width:0.264583"
         y="20.157362"
         x="17.506151"
         id="tspan1030"
         sodipodi:role="line">Priyam:</tspan></text>
    <text
       xml:space="preserve"
       style="font-size:16.9333px;line-height:1.25;font-family:Arial;-inkscape-font-specification:Arial;fill:#ffffff;stroke-width:0.264583"
       x="7.1367593"
       y="32.63266"
       id="text1032-6"><tspan
         sodipodi:role="line"
         id="tspan1030-7"
         x="7.1367593"
         y="32.63266"
         style="font-style:normal;font-variant:normal;font-weight:normal;font-stretch:normal;font-size:16.9333px;font-family:'Microsoft Yi Baiti';-inkscape-font-specification:'Microsoft Yi Baiti';fill:#ffffff;stroke-width:0.264583">Winter</tspan></text>
  </g>
</svg>
