<?xml version="1.0" encoding="UTF-8"?>
<svg xmlns="http://www.w3.org/2000/svg" xmlns:xlink="http://www.w3.org/1999/xlink" width="1280" height="720" viewBox="0 0 1280 720">
<defs>
<g>
<g id="glyph-0-0">
<path d="M 41.328125 0 L 8.078125 0 L 8.078125 -59.5 L 41.328125 -59.5 L 41.328125 -52.90625 L 15.578125 -52.90625 L 15.578125 -34.328125 L 39.828125 -34.328125 L 39.828125 -27.828125 L 15.578125 -27.828125 L 15.578125 -6.578125 L 41.328125 -6.578125 Z "/>
</g>
<g id="glyph-0-1">
<path d="M 28.578125 -45.5 C 33.910156 -45.5 37.9375 -44.207031 40.65625 -41.625 C 43.382812 -39.039062 44.75 -34.859375 44.75 -29.078125 L 44.75 0 L 37.5 0 L 37.5 -28.578125 C 37.5 -35.742188 34.164062 -39.328125 27.5 -39.328125 C 22.550781 -39.328125 19.132812 -37.9375 17.25 -35.15625 C 15.363281 -32.382812 14.421875 -28.390625 14.421875 -23.171875 L 14.421875 0 L 7.078125 0 L 7.078125 -44.65625 L 13 -44.65625 L 14.078125 -38.578125 L 14.5 -38.578125 C 15.945312 -40.910156 17.945312 -42.644531 20.5 -43.78125 C 23.050781 -44.925781 25.742188 -45.5 28.578125 -45.5 Z "/>
</g>
<g id="glyph-0-2">
<path d="M 16.921875 0 L 0 -44.65625 L 7.828125 -44.65625 L 17.328125 -18.328125 C 17.773438 -17.109375 18.25 -15.75 18.75 -14.25 C 19.25 -12.75 19.691406 -11.316406 20.078125 -9.953125 C 20.472656 -8.597656 20.753906 -7.445312 20.921875 -6.5 L 21.25 -6.5 C 21.46875 -7.445312 21.785156 -8.613281 22.203125 -10 C 22.617188 -11.382812 23.09375 -12.828125 23.625 -14.328125 C 24.15625 -15.828125 24.613281 -17.160156 25 -18.328125 L 34.5 -44.65625 L 42.328125 -44.65625 L 25.328125 0 Z "/>
</g>
<g id="glyph-0-3">
<path d="M 10.828125 -61.40625 C 11.941406 -61.40625 12.925781 -61.03125 13.78125 -60.28125 C 14.644531 -59.53125 15.078125 -58.351562 15.078125 -56.75 C 15.078125 -55.1875 14.644531 -54.015625 13.78125 -53.234375 C 12.925781 -52.460938 11.941406 -52.078125 10.828125 -52.078125 C 9.609375 -52.078125 8.582031 -52.460938 7.75 -53.234375 C 6.914062 -54.015625 6.5 -55.1875 6.5 -56.75 C 6.5 -58.351562 6.914062 -59.53125 7.75 -60.28125 C 8.582031 -61.03125 9.609375 -61.40625 10.828125 -61.40625 Z M 14.421875 -44.65625 L 14.421875 0 L 7.078125 0 L 7.078125 -44.65625 Z "/>
</g>
<g id="glyph-0-4">
<path d="M 27.921875 -45.5 C 28.753906 -45.5 29.65625 -45.457031 30.625 -45.375 C 31.59375 -45.289062 32.441406 -45.164062 33.171875 -45 L 32.25 -38.25 C 31.53125 -38.414062 30.738281 -38.550781 29.875 -38.65625 C 29.007812 -38.769531 28.191406 -38.828125 27.421875 -38.828125 C 25.140625 -38.828125 23 -38.203125 21 -36.953125 C 19 -35.703125 17.398438 -33.953125 16.203125 -31.703125 C 15.015625 -29.453125 14.421875 -26.828125 14.421875 -23.828125 L 14.421875 0 L 7.078125 0 L 7.078125 -44.65625 L 13.078125 -44.65625 L 13.921875 -36.5 L 14.25 -36.5 C 15.695312 -38.945312 17.554688 -41.054688 19.828125 -42.828125 C 22.109375 -44.609375 24.804688 -45.5 27.921875 -45.5 Z "/>
</g>
<g id="glyph-0-5">
<path d="M 45.90625 -22.421875 C 45.90625 -15.023438 44.03125 -9.300781 40.28125 -5.25 C 36.539062 -1.195312 31.472656 0.828125 25.078125 0.828125 C 21.140625 0.828125 17.628906 -0.0703125 14.546875 -1.875 C 11.460938 -3.675781 9.03125 -6.3125 7.25 -9.78125 C 5.46875 -13.257812 4.578125 -17.472656 4.578125 -22.421875 C 4.578125 -29.804688 6.4375 -35.5 10.15625 -39.5 C 13.882812 -43.5 18.941406 -45.5 25.328125 -45.5 C 29.390625 -45.5 32.960938 -44.59375 36.046875 -42.78125 C 39.128906 -40.976562 41.539062 -38.367188 43.28125 -34.953125 C 45.03125 -31.535156 45.90625 -27.359375 45.90625 -22.421875 Z M 12.171875 -22.421875 C 12.171875 -17.140625 13.210938 -12.957031 15.296875 -9.875 C 17.378906 -6.789062 20.695312 -5.25 25.25 -5.25 C 29.75 -5.25 33.050781 -6.789062 35.15625 -9.875 C 37.269531 -12.957031 38.328125 -17.140625 38.328125 -22.421875 C 38.328125 -27.691406 37.269531 -31.828125 35.15625 -34.828125 C 33.050781 -37.828125 29.722656 -39.328125 25.171875 -39.328125 C 20.609375 -39.328125 17.300781 -37.828125 15.25 -34.828125 C 13.195312 -31.828125 12.171875 -27.691406 12.171875 -22.421875 Z "/>
</g>
<g id="glyph-0-6">
<path d="M 56.078125 -45.5 C 61.128906 -45.5 64.90625 -44.207031 67.40625 -41.625 C 69.90625 -39.039062 71.15625 -34.859375 71.15625 -29.078125 L 71.15625 0 L 63.90625 0 L 63.90625 -28.75 C 63.90625 -35.800781 60.878906 -39.328125 54.828125 -39.328125 C 50.492188 -39.328125 47.394531 -38.078125 45.53125 -35.578125 C 43.675781 -33.078125 42.75 -29.441406 42.75 -24.671875 L 42.75 0 L 35.5 0 L 35.5 -28.75 C 35.5 -35.800781 32.441406 -39.328125 26.328125 -39.328125 C 21.828125 -39.328125 18.71875 -37.9375 17 -35.15625 C 15.28125 -32.382812 14.421875 -28.390625 14.421875 -23.171875 L 14.421875 0 L 7.078125 0 L 7.078125 -44.65625 L 13 -44.65625 L 14.078125 -38.578125 L 14.5 -38.578125 C 15.882812 -40.910156 17.757812 -42.644531 20.125 -43.78125 C 22.488281 -44.925781 25.003906 -45.5 27.671875 -45.5 C 34.671875 -45.5 39.222656 -43 41.328125 -38 L 41.75 -38 C 43.25 -40.550781 45.289062 -42.4375 47.875 -43.65625 C 50.457031 -44.882812 53.191406 -45.5 56.078125 -45.5 Z "/>
</g>
<g id="glyph-0-7">
<path d="M 24.328125 -45.5 C 28.160156 -45.5 31.453125 -44.664062 34.203125 -43 C 36.953125 -41.332031 39.0625 -38.984375 40.53125 -35.953125 C 42.007812 -32.929688 42.75 -29.390625 42.75 -25.328125 L 42.75 -20.921875 L 12.171875 -20.921875 C 12.273438 -15.859375 13.5625 -12.007812 16.03125 -9.375 C 18.507812 -6.738281 21.972656 -5.421875 26.421875 -5.421875 C 29.253906 -5.421875 31.765625 -5.679688 33.953125 -6.203125 C 36.148438 -6.734375 38.414062 -7.5 40.75 -8.5 L 40.75 -2.078125 C 38.46875 -1.078125 36.21875 -0.34375 34 0.125 C 31.78125 0.59375 29.140625 0.828125 26.078125 0.828125 C 21.859375 0.828125 18.125 -0.03125 14.875 -1.75 C 11.625 -3.46875 9.09375 -6.035156 7.28125 -9.453125 C 5.476562 -12.867188 4.578125 -17.050781 4.578125 -22 C 4.578125 -26.882812 5.394531 -31.078125 7.03125 -34.578125 C 8.675781 -38.078125 10.984375 -40.769531 13.953125 -42.65625 C 16.929688 -44.550781 20.390625 -45.5 24.328125 -45.5 Z M 24.25 -39.5 C 20.75 -39.5 17.984375 -38.375 15.953125 -36.125 C 13.929688 -33.875 12.722656 -30.75 12.328125 -26.75 L 35.078125 -26.75 C 35.023438 -30.53125 34.132812 -33.597656 32.40625 -35.953125 C 30.6875 -38.316406 27.96875 -39.5 24.25 -39.5 Z "/>
</g>
<g id="glyph-0-8">
<path d="M 22 -5.171875 C 23.113281 -5.171875 24.253906 -5.265625 25.421875 -5.453125 C 26.585938 -5.648438 27.53125 -5.859375 28.25 -6.078125 L 28.25 -0.5 C 27.46875 -0.113281 26.351562 0.203125 24.90625 0.453125 C 23.46875 0.703125 22.082031 0.828125 20.75 0.828125 C 18.414062 0.828125 16.257812 0.425781 14.28125 -0.375 C 12.3125 -1.175781 10.71875 -2.578125 9.5 -4.578125 C 8.28125 -6.578125 7.671875 -9.382812 7.671875 -13 L 7.671875 -39 L 1.328125 -39 L 1.328125 -42.5 L 7.75 -45.40625 L 10.671875 -54.90625 L 15 -54.90625 L 15 -44.65625 L 27.921875 -44.65625 L 27.921875 -39 L 15 -39 L 15 -13.171875 C 15 -10.441406 15.648438 -8.425781 16.953125 -7.125 C 18.265625 -5.820312 19.945312 -5.171875 22 -5.171875 Z "/>
</g>
<g id="glyph-0-9">
<path d="M 36.171875 -12.328125 C 36.171875 -7.992188 34.554688 -4.71875 31.328125 -2.5 C 28.109375 -0.28125 23.773438 0.828125 18.328125 0.828125 C 15.222656 0.828125 12.546875 0.578125 10.296875 0.078125 C 8.046875 -0.421875 6.054688 -1.113281 4.328125 -2 L 4.328125 -8.671875 C 6.109375 -7.773438 8.257812 -6.953125 10.78125 -6.203125 C 13.3125 -5.453125 15.882812 -5.078125 18.5 -5.078125 C 22.21875 -5.078125 24.910156 -5.675781 26.578125 -6.875 C 28.242188 -8.070312 29.078125 -9.671875 29.078125 -11.671875 C 29.078125 -12.773438 28.769531 -13.769531 28.15625 -14.65625 C 27.550781 -15.550781 26.457031 -16.441406 24.875 -17.328125 C 23.289062 -18.222656 21.023438 -19.222656 18.078125 -20.328125 C 15.191406 -21.441406 12.71875 -22.550781 10.65625 -23.65625 C 8.601562 -24.769531 7.019531 -26.101562 5.90625 -27.65625 C 4.800781 -29.21875 4.25 -31.222656 4.25 -33.671875 C 4.25 -37.441406 5.789062 -40.351562 8.875 -42.40625 C 11.957031 -44.46875 16 -45.5 21 -45.5 C 23.71875 -45.5 26.257812 -45.234375 28.625 -44.703125 C 30.988281 -44.171875 33.195312 -43.4375 35.25 -42.5 L 32.75 -36.671875 C 30.863281 -37.441406 28.890625 -38.101562 26.828125 -38.65625 C 24.773438 -39.21875 22.664062 -39.5 20.5 -39.5 C 17.5 -39.5 15.207031 -39.007812 13.625 -38.03125 C 12.039062 -37.0625 11.25 -35.742188 11.25 -34.078125 C 11.25 -32.859375 11.609375 -31.816406 12.328125 -30.953125 C 13.054688 -30.097656 14.265625 -29.265625 15.953125 -28.453125 C 17.648438 -27.648438 19.914062 -26.691406 22.75 -25.578125 C 25.582031 -24.523438 28 -23.441406 30 -22.328125 C 32 -21.222656 33.523438 -19.878906 34.578125 -18.296875 C 35.640625 -16.710938 36.171875 -14.722656 36.171875 -12.328125 Z "/>
</g>
<g id="glyph-0-10">
</g>
<g id="glyph-0-11">
<path d="M 14.421875 0 L 7.078125 0 L 7.078125 -63.328125 L 14.421875 -63.328125 Z "/>
</g>
<g id="glyph-0-12">
<path d="M 44.40625 -44.65625 L 44.40625 0 L 38.421875 0 L 37.328125 -5.921875 L 37 -5.921875 C 35.550781 -3.585938 33.550781 -1.878906 31 -0.796875 C 28.445312 0.285156 25.722656 0.828125 22.828125 0.828125 C 17.441406 0.828125 13.382812 -0.460938 10.65625 -3.046875 C 7.9375 -5.628906 6.578125 -9.753906 6.578125 -15.421875 L 6.578125 -44.65625 L 14 -44.65625 L 14 -15.921875 C 14 -8.804688 17.304688 -5.25 23.921875 -5.25 C 28.859375 -5.25 32.285156 -6.632812 34.203125 -9.40625 C 36.117188 -12.1875 37.078125 -16.191406 37.078125 -21.421875 L 37.078125 -44.65625 Z "/>
</g>
<g id="glyph-0-13">
<path d="M 24 -45.40625 C 29.445312 -45.40625 33.472656 -44.210938 36.078125 -41.828125 C 38.691406 -39.441406 40 -35.640625 40 -30.421875 L 40 0 L 34.671875 0 L 33.25 -6.328125 L 32.921875 -6.328125 C 30.972656 -3.890625 28.925781 -2.085938 26.78125 -0.921875 C 24.644531 0.242188 21.691406 0.828125 17.921875 0.828125 C 13.859375 0.828125 10.492188 -0.238281 7.828125 -2.375 C 5.160156 -4.507812 3.828125 -7.859375 3.828125 -12.421875 C 3.828125 -16.859375 5.578125 -20.285156 9.078125 -22.703125 C 12.578125 -25.117188 17.96875 -26.441406 25.25 -26.671875 L 32.828125 -26.921875 L 32.828125 -29.578125 C 32.828125 -33.304688 32.019531 -35.890625 30.40625 -37.328125 C 28.800781 -38.773438 26.523438 -39.5 23.578125 -39.5 C 21.242188 -39.5 19.019531 -39.148438 16.90625 -38.453125 C 14.800781 -37.765625 12.832031 -36.972656 11 -36.078125 L 8.75 -41.578125 C 10.695312 -42.628906 13.003906 -43.53125 15.671875 -44.28125 C 18.335938 -45.03125 21.113281 -45.40625 24 -45.40625 Z M 26.171875 -21.578125 C 20.609375 -21.359375 16.757812 -20.46875 14.625 -18.90625 C 12.488281 -17.351562 11.421875 -15.160156 11.421875 -12.328125 C 11.421875 -9.828125 12.179688 -7.992188 13.703125 -6.828125 C 15.234375 -5.660156 17.191406 -5.078125 19.578125 -5.078125 C 23.359375 -5.078125 26.5 -6.117188 29 -8.203125 C 31.5 -10.285156 32.75 -13.492188 32.75 -17.828125 L 32.75 -21.828125 Z "/>
</g>
<g id="glyph-0-14">
<path d="M 0.078125 -44.65625 L 7.921875 -44.65625 L 17.578125 -19.25 C 18.410156 -17.03125 19.160156 -14.90625 19.828125 -12.875 C 20.492188 -10.84375 20.992188 -8.910156 21.328125 -7.078125 L 21.671875 -7.078125 C 22.003906 -8.472656 22.53125 -10.296875 23.25 -12.546875 C 23.96875 -14.796875 24.71875 -17.054688 25.5 -19.328125 L 34.578125 -44.65625 L 42.5 -44.65625 L 23.25 6.171875 C 21.695312 10.390625 19.679688 13.75 17.203125 16.25 C 14.734375 18.75 11.332031 20 7 20 C 5.664062 20 4.5 19.925781 3.5 19.78125 C 2.5 19.644531 1.640625 19.492188 0.921875 19.328125 L 0.921875 13.5 C 1.523438 13.613281 2.257812 13.722656 3.125 13.828125 C 3.988281 13.941406 4.890625 14 5.828125 14 C 8.390625 14 10.460938 13.273438 12.046875 11.828125 C 13.628906 10.390625 14.863281 8.472656 15.75 6.078125 L 18.078125 0.171875 Z "/>
</g>
</g>
</defs>
<g fill="rgb(0%, 0%, 0%)" fill-opacity="1">
<use xlink:href="#glyph-0-0" x="30" y="109.083008"/>
<use xlink:href="#glyph-0-1" x="76" y="109.083008"/>
<use xlink:href="#glyph-0-2" x="128" y="109.083008"/>
<use xlink:href="#glyph-0-3" x="170" y="109.083008"/>
<use xlink:href="#glyph-0-4" x="192" y="109.083008"/>
<use xlink:href="#glyph-0-5" x="225" y="109.083008"/>
<use xlink:href="#glyph-0-1" x="275" y="109.083008"/>
<use xlink:href="#glyph-0-6" x="327" y="109.083008"/>
<use xlink:href="#glyph-0-7" x="405" y="109.083008"/>
<use xlink:href="#glyph-0-1" x="452" y="109.083008"/>
<use xlink:href="#glyph-0-8" x="504" y="109.083008"/>
<use xlink:href="#glyph-0-9" x="534" y="109.083008"/>
<use xlink:href="#glyph-0-10" x="574" y="109.083008"/>
<use xlink:href="#glyph-0-5" x="596" y="109.083008"/>
<use xlink:href="#glyph-0-2" x="645" y="109.083008"/>
<use xlink:href="#glyph-0-7" x="687" y="109.083008"/>
<use xlink:href="#glyph-0-4" x="734" y="109.083008"/>
<use xlink:href="#glyph-0-10" x="768" y="109.083008"/>
<use xlink:href="#glyph-0-7" x="790" y="109.083008"/>
<use xlink:href="#glyph-0-2" x="835" y="109.083008"/>
<use xlink:href="#glyph-0-5" x="877" y="109.083008"/>
<use xlink:href="#glyph-0-11" x="927" y="109.083008"/>
<use xlink:href="#glyph-0-12" x="949" y="109.083008"/>
<use xlink:href="#glyph-0-8" x="1001" y="109.083008"/>
<use xlink:href="#glyph-0-3" x="1031" y="109.083008"/>
<use xlink:href="#glyph-0-5" x="1053" y="109.083008"/>
<use xlink:href="#glyph-0-1" x="1103" y="109.083008"/>
<use xlink:href="#glyph-0-13" x="1155" y="109.083008"/>
<use xlink:href="#glyph-0-4" x="1202" y="109.083008"/>
<use xlink:href="#glyph-0-14" x="1236" y="109.083008"/>
</g>
<g fill="rgb(0%, 0%, 0%)" fill-opacity="1">
<use xlink:href="#glyph-0-8" x="30" y="222.583008"/>
<use xlink:href="#glyph-0-3" x="60" y="222.583008"/>
<use xlink:href="#glyph-0-6" x="82" y="222.583008"/>
<use xlink:href="#glyph-0-7" x="160" y="222.583008"/>
</g>
</svg>
