<?xml version="1.0" encoding="utf-8" standalone="no"?>
<!DOCTYPE svg PUBLIC "-//W3C//DTD SVG 1.1//EN"
  "http://www.w3.org/Graphics/SVG/1.1/DTD/svg11.dtd">
<svg xmlns:xlink="http://www.w3.org/1999/xlink" width="460.8pt" height="345.6pt" viewBox="0 0 460.8 345.6" xmlns="http://www.w3.org/2000/svg" version="1.1">
 <metadata>
  <rdf:RDF xmlns:dc="http://purl.org/dc/elements/1.1/" xmlns:cc="http://creativecommons.org/ns#" xmlns:rdf="http://www.w3.org/1999/02/22-rdf-syntax-ns#">
   <cc:Work>
    <dc:type rdf:resource="http://purl.org/dc/dcmitype/StillImage"/>
    <dc:date>2025-01-27T09:10:04.526375</dc:date>
    <dc:format>image/svg+xml</dc:format>
    <dc:creator>
     <cc:Agent>
      <dc:title>Matplotlib v3.10.0, https://matplotlib.org/</dc:title>
     </cc:Agent>
    </dc:creator>
   </cc:Work>
  </rdf:RDF>
 </metadata>
 <defs>
  <style type="text/css">*{stroke-linejoin: round; stroke-linecap: butt}</style>
 </defs>
 <g id="figure_1">
  <g id="patch_1">
   <path d="M 0 345.6 
L 460.8 345.6 
L 460.8 0 
L 0 0 
z
" style="fill: #ffffff"/>
  </g>
  <g id="axes_1">
   <g id="LineCollection_1">
    <path d="M 374.398631 260.778998 
L 292.920723 106.196573 
" clip-path="url(#p64224adec1)" style="fill: none; stroke: #808080"/>
    <path d="M 374.398631 260.778998 
L 420.813223 160.535436 
" clip-path="url(#p64224adec1)" style="fill: none; stroke: #808080"/>
    <path d="M 374.398631 260.778998 
L 229.623126 210.113955 
" clip-path="url(#p64224adec1)" style="fill: none; stroke: #808080"/>
    <path d="M 374.398631 260.778998 
L 171.12864 244.922945 
" clip-path="url(#p64224adec1)" style="fill: none; stroke: #808080"/>
    <path d="M 374.398631 260.778998 
L 243.55036 315.609917 
" clip-path="url(#p64224adec1)" style="fill: none; stroke: #808080"/>
    <path d="M 374.398631 260.778998 
L 317.659577 167.890771 
" clip-path="url(#p64224adec1)" style="fill: none; stroke: #808080"/>
    <path d="M 292.920723 106.196573 
L 420.813223 160.535436 
" clip-path="url(#p64224adec1)" style="fill: none; stroke: #808080"/>
    <path d="M 292.920723 106.196573 
L 229.623126 210.113955 
" clip-path="url(#p64224adec1)" style="fill: none; stroke: #808080"/>
    <path d="M 292.920723 106.196573 
L 84.67702 90.867804 
" clip-path="url(#p64224adec1)" style="fill: none; stroke: #808080"/>
    <path d="M 292.920723 106.196573 
L 144.009554 178.032381 
" clip-path="url(#p64224adec1)" style="fill: none; stroke: #808080"/>
    <path d="M 292.920723 106.196573 
L 216.382129 29.990083 
" clip-path="url(#p64224adec1)" style="fill: none; stroke: #808080"/>
    <path d="M 420.813223 160.535436 
L 229.623126 210.113955 
" clip-path="url(#p64224adec1)" style="fill: none; stroke: #808080"/>
    <path d="M 420.813223 160.535436 
L 224.778464 130.913859 
" clip-path="url(#p64224adec1)" style="fill: none; stroke: #808080"/>
    <path d="M 420.813223 160.535436 
L 302.978513 230.848242 
" clip-path="url(#p64224adec1)" style="fill: none; stroke: #808080"/>
    <path d="M 420.813223 160.535436 
L 356.356473 68.783329 
" clip-path="url(#p64224adec1)" style="fill: none; stroke: #808080"/>
    <path d="M 229.623126 210.113955 
L 39.986777 180.743212 
" clip-path="url(#p64224adec1)" style="fill: none; stroke: #808080"/>
    <path d="M 229.623126 210.113955 
L 99.725071 268.178551 
" clip-path="url(#p64224adec1)" style="fill: none; stroke: #808080"/>
    <path d="M 229.623126 210.113955 
L 157.240362 106.835444 
" clip-path="url(#p64224adec1)" style="fill: none; stroke: #808080"/>
    <path d="M 171.12864 244.922945 
L 84.67702 90.867804 
" clip-path="url(#p64224adec1)" style="fill: none; stroke: #808080"/>
    <path d="M 171.12864 244.922945 
L 224.778464 130.913859 
" clip-path="url(#p64224adec1)" style="fill: none; stroke: #808080"/>
    <path d="M 171.12864 244.922945 
L 39.986777 180.743212 
" clip-path="url(#p64224adec1)" style="fill: none; stroke: #808080"/>
    <path d="M 171.12864 244.922945 
L 243.55036 315.609917 
" clip-path="url(#p64224adec1)" style="fill: none; stroke: #808080"/>
    <path d="M 171.12864 244.922945 
L 317.659577 167.890771 
" clip-path="url(#p64224adec1)" style="fill: none; stroke: #808080"/>
    <path d="M 84.67702 90.867804 
L 224.778464 130.913859 
" clip-path="url(#p64224adec1)" style="fill: none; stroke: #808080"/>
    <path d="M 84.67702 90.867804 
L 39.986777 180.743212 
" clip-path="url(#p64224adec1)" style="fill: none; stroke: #808080"/>
    <path d="M 84.67702 90.867804 
L 144.009554 178.032381 
" clip-path="url(#p64224adec1)" style="fill: none; stroke: #808080"/>
    <path d="M 84.67702 90.867804 
L 216.382129 29.990083 
" clip-path="url(#p64224adec1)" style="fill: none; stroke: #808080"/>
    <path d="M 224.778464 130.913859 
L 39.986777 180.743212 
" clip-path="url(#p64224adec1)" style="fill: none; stroke: #808080"/>
    <path d="M 224.778464 130.913859 
L 302.978513 230.848242 
" clip-path="url(#p64224adec1)" style="fill: none; stroke: #808080"/>
    <path d="M 224.778464 130.913859 
L 356.356473 68.783329 
" clip-path="url(#p64224adec1)" style="fill: none; stroke: #808080"/>
    <path d="M 39.986777 180.743212 
L 99.725071 268.178551 
" clip-path="url(#p64224adec1)" style="fill: none; stroke: #808080"/>
    <path d="M 39.986777 180.743212 
L 157.240362 106.835444 
" clip-path="url(#p64224adec1)" style="fill: none; stroke: #808080"/>
    <path d="M 243.55036 315.609917 
L 144.009554 178.032381 
" clip-path="url(#p64224adec1)" style="fill: none; stroke: #808080"/>
    <path d="M 243.55036 315.609917 
L 302.978513 230.848242 
" clip-path="url(#p64224adec1)" style="fill: none; stroke: #808080"/>
    <path d="M 243.55036 315.609917 
L 99.725071 268.178551 
" clip-path="url(#p64224adec1)" style="fill: none; stroke: #808080"/>
    <path d="M 243.55036 315.609917 
L 317.659577 167.890771 
" clip-path="url(#p64224adec1)" style="fill: none; stroke: #808080"/>
    <path d="M 144.009554 178.032381 
L 302.978513 230.848242 
" clip-path="url(#p64224adec1)" style="fill: none; stroke: #808080"/>
    <path d="M 144.009554 178.032381 
L 99.725071 268.178551 
" clip-path="url(#p64224adec1)" style="fill: none; stroke: #808080"/>
    <path d="M 144.009554 178.032381 
L 216.382129 29.990083 
" clip-path="url(#p64224adec1)" style="fill: none; stroke: #808080"/>
    <path d="M 302.978513 230.848242 
L 99.725071 268.178551 
" clip-path="url(#p64224adec1)" style="fill: none; stroke: #808080"/>
    <path d="M 302.978513 230.848242 
L 356.356473 68.783329 
" clip-path="url(#p64224adec1)" style="fill: none; stroke: #808080"/>
    <path d="M 99.725071 268.178551 
L 157.240362 106.835444 
" clip-path="url(#p64224adec1)" style="fill: none; stroke: #808080"/>
    <path d="M 317.659577 167.890771 
L 216.382129 29.990083 
" clip-path="url(#p64224adec1)" style="fill: none; stroke: #808080"/>
    <path d="M 317.659577 167.890771 
L 356.356473 68.783329 
" clip-path="url(#p64224adec1)" style="fill: none; stroke: #808080"/>
    <path d="M 317.659577 167.890771 
L 157.240362 106.835444 
" clip-path="url(#p64224adec1)" style="fill: none; stroke: #808080"/>
    <path d="M 216.382129 29.990083 
L 356.356473 68.783329 
" clip-path="url(#p64224adec1)" style="fill: none; stroke: #808080"/>
    <path d="M 216.382129 29.990083 
L 157.240362 106.835444 
" clip-path="url(#p64224adec1)" style="fill: none; stroke: #808080"/>
    <path d="M 356.356473 68.783329 
L 157.240362 106.835444 
" clip-path="url(#p64224adec1)" style="fill: none; stroke: #808080"/>
   </g>
   <g id="PathCollection_1">
    <defs>
     <path id="mf22dea9661" d="M 0 10 
C 2.652031 10 5.195799 8.946337 7.071068 7.071068 
C 8.946337 5.195799 10 2.652031 10 0 
C 10 -2.652031 8.946337 -5.195799 7.071068 -7.071068 
C 5.195799 -8.946337 2.652031 -10 0 -10 
C -2.652031 -10 -5.195799 -8.946337 -7.071068 -7.071068 
C -8.946337 -5.195799 -10 -2.652031 -10 0 
C -10 2.652031 -8.946337 5.195799 -7.071068 7.071068 
C -5.195799 8.946337 -2.652031 10 0 10 
z
" style="stroke: #808080"/>
    </defs>
    <g clip-path="url(#p64224adec1)">
     <use xlink:href="#mf22dea9661" x="374.398631" y="260.778998" style="fill: #808080; stroke: #808080"/>
     <use xlink:href="#mf22dea9661" x="292.920723" y="106.196573" style="fill: #808080; stroke: #808080"/>
     <use xlink:href="#mf22dea9661" x="420.813223" y="160.535436" style="fill: #808080; stroke: #808080"/>
     <use xlink:href="#mf22dea9661" x="229.623126" y="210.113955" style="fill: #808080; stroke: #808080"/>
     <use xlink:href="#mf22dea9661" x="171.12864" y="244.922945" style="fill: #808080; stroke: #808080"/>
     <use xlink:href="#mf22dea9661" x="84.67702" y="90.867804" style="fill: #808080; stroke: #808080"/>
     <use xlink:href="#mf22dea9661" x="224.778464" y="130.913859" style="fill: #808080; stroke: #808080"/>
     <use xlink:href="#mf22dea9661" x="39.986777" y="180.743212" style="fill: #808080; stroke: #808080"/>
     <use xlink:href="#mf22dea9661" x="243.55036" y="315.609917" style="fill: #808080; stroke: #808080"/>
     <use xlink:href="#mf22dea9661" x="144.009554" y="178.032381" style="fill: #808080; stroke: #808080"/>
     <use xlink:href="#mf22dea9661" x="302.978513" y="230.848242" style="fill: #808080; stroke: #808080"/>
     <use xlink:href="#mf22dea9661" x="99.725071" y="268.178551" style="fill: #808080; stroke: #808080"/>
     <use xlink:href="#mf22dea9661" x="317.659577" y="167.890771" style="fill: #808080; stroke: #808080"/>
     <use xlink:href="#mf22dea9661" x="216.382129" y="29.990083" style="fill: #808080; stroke: #808080"/>
     <use xlink:href="#mf22dea9661" x="356.356473" y="68.783329" style="fill: #808080; stroke: #808080"/>
     <use xlink:href="#mf22dea9661" x="157.240362" y="106.835444" style="fill: #808080; stroke: #808080"/>
    </g>
   </g>
   <g id="text_1">
    <g clip-path="url(#p64224adec1)">
     <!-- AA -->
     <g transform="translate(367.420506 263.538373) scale(0.1 -0.1)">
      <defs>
       <path id="DejaVuSans-41" d="M 2188 4044 
L 1331 1722 
L 3047 1722 
L 2188 4044 
z
M 1831 4666 
L 2547 4666 
L 4325 0 
L 3669 0 
L 3244 1197 
L 1141 1197 
L 716 0 
L 50 0 
L 1831 4666 
z
" transform="scale(0.015625)"/>
      </defs>
      <use xlink:href="#DejaVuSans-41"/>
      <use xlink:href="#DejaVuSans-41" transform="translate(71.158203 0)"/>
     </g>
    </g>
   </g>
   <g id="text_2">
    <g clip-path="url(#p64224adec1)">
     <!-- AC -->
     <g transform="translate(286.096504 108.955948) scale(0.1 -0.1)">
      <defs>
       <path id="DejaVuSans-43" d="M 4122 4306 
L 4122 3641 
Q 3803 3938 3442 4084 
Q 3081 4231 2675 4231 
Q 1875 4231 1450 3742 
Q 1025 3253 1025 2328 
Q 1025 1406 1450 917 
Q 1875 428 2675 428 
Q 3081 428 3442 575 
Q 3803 722 4122 1019 
L 4122 359 
Q 3791 134 3420 21 
Q 3050 -91 2638 -91 
Q 1578 -91 968 557 
Q 359 1206 359 2328 
Q 359 3453 968 4101 
Q 1578 4750 2638 4750 
Q 3056 4750 3426 4639 
Q 3797 4528 4122 4306 
z
" transform="scale(0.015625)"/>
      </defs>
      <use xlink:href="#DejaVuSans-41"/>
      <use xlink:href="#DejaVuSans-43" transform="translate(66.658203 0)"/>
     </g>
    </g>
   </g>
   <g id="text_3">
    <g clip-path="url(#p64224adec1)">
     <!-- AG -->
     <g transform="translate(413.606192 163.294811) scale(0.1 -0.1)">
      <defs>
       <path id="DejaVuSans-47" d="M 3809 666 
L 3809 1919 
L 2778 1919 
L 2778 2438 
L 4434 2438 
L 4434 434 
Q 4069 175 3628 42 
Q 3188 -91 2688 -91 
Q 1594 -91 976 548 
Q 359 1188 359 2328 
Q 359 3472 976 4111 
Q 1594 4750 2688 4750 
Q 3144 4750 3555 4637 
Q 3966 4525 4313 4306 
L 4313 3634 
Q 3963 3931 3569 4081 
Q 3175 4231 2741 4231 
Q 1884 4231 1454 3753 
Q 1025 3275 1025 2328 
Q 1025 1384 1454 906 
Q 1884 428 2741 428 
Q 3075 428 3337 486 
Q 3600 544 3809 666 
z
" transform="scale(0.015625)"/>
      </defs>
      <use xlink:href="#DejaVuSans-41"/>
      <use xlink:href="#DejaVuSans-47" transform="translate(66.658203 0)"/>
     </g>
    </g>
   </g>
   <g id="text_4">
    <g clip-path="url(#p64224adec1)">
     <!-- AT -->
     <g transform="translate(223.536407 212.87333) scale(0.1 -0.1)">
      <defs>
       <path id="DejaVuSans-54" d="M -19 4666 
L 3928 4666 
L 3928 4134 
L 2272 4134 
L 2272 0 
L 1638 0 
L 1638 4134 
L -19 4134 
L -19 4666 
z
" transform="scale(0.015625)"/>
      </defs>
      <use xlink:href="#DejaVuSans-41"/>
      <use xlink:href="#DejaVuSans-54" transform="translate(60.658203 0)"/>
     </g>
    </g>
   </g>
   <g id="text_5">
    <g clip-path="url(#p64224adec1)">
     <!-- CA -->
     <g transform="translate(164.216921 247.68232) scale(0.1 -0.1)">
      <use xlink:href="#DejaVuSans-43"/>
      <use xlink:href="#DejaVuSans-41" transform="translate(69.824219 0)"/>
     </g>
    </g>
   </g>
   <g id="text_6">
    <g clip-path="url(#p64224adec1)">
     <!-- CC -->
     <g transform="translate(77.694207 93.627179) scale(0.1 -0.1)">
      <use xlink:href="#DejaVuSans-43"/>
      <use xlink:href="#DejaVuSans-43" transform="translate(69.824219 0)"/>
     </g>
    </g>
   </g>
   <g id="text_7">
    <g clip-path="url(#p64224adec1)">
     <!-- CG -->
     <g transform="translate(217.412839 133.673234) scale(0.1 -0.1)">
      <use xlink:href="#DejaVuSans-43"/>
      <use xlink:href="#DejaVuSans-47" transform="translate(69.824219 0)"/>
     </g>
    </g>
   </g>
   <g id="text_8">
    <g clip-path="url(#p64224adec1)">
     <!-- CT -->
     <g transform="translate(33.441464 183.502587) scale(0.1 -0.1)">
      <use xlink:href="#DejaVuSans-43"/>
      <use xlink:href="#DejaVuSans-54" transform="translate(69.824219 0)"/>
     </g>
    </g>
   </g>
   <g id="text_9">
    <g clip-path="url(#p64224adec1)">
     <!-- GA -->
     <g transform="translate(236.255828 318.369292) scale(0.1 -0.1)">
      <use xlink:href="#DejaVuSans-47"/>
      <use xlink:href="#DejaVuSans-41" transform="translate(77.490234 0)"/>
     </g>
    </g>
   </g>
   <g id="text_10">
    <g clip-path="url(#p64224adec1)">
     <!-- GC -->
     <g transform="translate(136.643929 180.791756) scale(0.1 -0.1)">
      <use xlink:href="#DejaVuSans-47"/>
      <use xlink:href="#DejaVuSans-43" transform="translate(77.490234 0)"/>
     </g>
    </g>
   </g>
   <g id="text_11">
    <g clip-path="url(#p64224adec1)">
     <!-- GG -->
     <g transform="translate(295.230076 233.607617) scale(0.1 -0.1)">
      <use xlink:href="#DejaVuSans-47"/>
      <use xlink:href="#DejaVuSans-47" transform="translate(77.490234 0)"/>
     </g>
    </g>
   </g>
   <g id="text_12">
    <g clip-path="url(#p64224adec1)">
     <!-- GT -->
     <g transform="translate(92.978196 270.937926) scale(0.1 -0.1)">
      <use xlink:href="#DejaVuSans-47"/>
      <use xlink:href="#DejaVuSans-54" transform="translate(73.865234 0)"/>
     </g>
    </g>
   </g>
   <g id="text_13">
    <g clip-path="url(#p64224adec1)">
     <!-- TA -->
     <g transform="translate(311.572858 170.650146) scale(0.1 -0.1)">
      <use xlink:href="#DejaVuSans-54"/>
      <use xlink:href="#DejaVuSans-41" transform="translate(53.333984 0)"/>
     </g>
    </g>
   </g>
   <g id="text_14">
    <g clip-path="url(#p64224adec1)">
     <!-- TC -->
     <g transform="translate(210.130566 32.749458) scale(0.1 -0.1)">
      <use xlink:href="#DejaVuSans-54"/>
      <use xlink:href="#DejaVuSans-43" transform="translate(55.208984 0)"/>
     </g>
    </g>
   </g>
   <g id="text_15">
    <g clip-path="url(#p64224adec1)">
     <!-- TG -->
     <g transform="translate(349.428348 71.542704) scale(0.1 -0.1)">
      <use xlink:href="#DejaVuSans-54"/>
      <use xlink:href="#DejaVuSans-47" transform="translate(61.083984 0)"/>
     </g>
    </g>
   </g>
   <g id="text_16">
    <g clip-path="url(#p64224adec1)">
     <!-- TT -->
     <g transform="translate(151.220049 109.594819) scale(0.1 -0.1)">
      <use xlink:href="#DejaVuSans-54"/>
      <use xlink:href="#DejaVuSans-54" transform="translate(59.333984 0)"/>
     </g>
    </g>
   </g>
  </g>
 </g>
 <defs>
  <clipPath id="p64224adec1">
   <rect x="0" y="0" width="460.8" height="345.6"/>
  </clipPath>
 </defs>
</svg>
